<?xml version="1.0" encoding="utf-8" standalone="no"?><!DOCTYPE svg PUBLIC "-//W3C//DTD SVG 1.1//EN" "http://www.w3.org/Graphics/SVG/1.1/DTD/svg11.dtd">
<svg preserveAspectRatio="xMinYMin meet" width="100%" height="100%" viewBox="0 0 1496.250 768.750"  version="1.1" xmlns="http://www.w3.org/2000/svg" xmlns:xlink="http://www.w3.org/1999/xlink">
  <desc>Matlab Figure Converted by PLOT2SVG written by Juerg Schwizer</desc>
  <g id="topgroup">
  <rect x="0" y="0" width="1496.250" height="768.750" fill="#ffffff" stroke="none" />
  <g id ="ID000000">
  <clipPath id="ID000001">
    <rect x="194.513" y="57.656" width="1159.594" height="626.531"/>
  </clipPath>
      <polygon fill="#ffffff" fill-opacity="1.00" stroke="none" stroke-width="0.5pt" stroke-opacity="1.00" stroke-dasharray="none" points="194.513,684.188 1354.106,684.188 1354.106,57.656 194.513,57.656 "/>
      <polygon fill="#ffffff" fill-opacity="1.00" stroke="none" stroke-width="0.5pt" stroke-opacity="1.00" stroke-dasharray="none" points="194.513,57.656 1354.106,57.656 1354.106,57.656 194.513,57.656 "/>
      <polygon fill="#ffffff" fill-opacity="1.00" stroke="none" stroke-width="0.5pt" stroke-opacity="1.00" stroke-dasharray="none" points="194.513,684.188 194.513,684.187 194.513,57.656 194.513,57.656 "/>
    <g>
<g id="ID000002" >
</g>
<g id="ID000003" >
</g>
<g id="ID000004" >
  <g transform="translate(774.310,52.503)">
    <g transform="rotate(-0.0)">
      <text x="0.000" y="0.000" font-family="times new roman" text-anchor="middle" font-size="10pt" font-weight="bold" fill="#000000" >E-field at Time Step 215</text>
    </g>
  </g>
</g>
<g id="ID000005" clip-path="url(#ID000001)" >
      <polyline fill="none" stroke="#000000" stroke-width="1.4pt" stroke-dasharray="none" points="196.445,370.922 198.378,370.922 200.310,370.922 202.243,370.922 204.176,370.922 206.108,370.922 208.041,370.922 209.974,370.922 211.906,370.922 213.839,370.922 215.772,370.922 217.704,370.922 219.637,370.922 221.570,370.922 223.502,370.922 225.435,370.922 227.368,370.922 229.300,370.922 231.233,370.922 233.166,370.922 235.098,370.922 237.031,370.922 238.964,370.922 240.896,370.922 242.829,370.922 244.762,370.922 246.694,370.922 248.627,370.922 250.560,370.922 252.492,370.922 254.425,370.922 256.358,370.922 258.290,370.922 260.223,370.922 262.155,370.922 264.088,370.922 266.021,370.922 267.953,370.922 269.886,370.922 271.819,370.922 273.751,370.923 275.684,370.924 277.617,370.926 279.549,370.930 281.482,370.936 283.415,370.947 285.347,370.966 287.280,370.998 289.213,371.049 291.145,371.130 293.078,371.257 295.011,371.451 296.943,371.740 298.876,372.161 300.809,372.761 302.741,373.596 304.674,374.734 306.607,376.246 308.539,378.210 310.472,380.697 312.405,383.771 314.337,387.473 316.270,391.815 318.202,396.766 320.135,402.250 322.068,408.136 324.000,414.241 325.933,420.338 327.866,426.161 329.798,431.434 331.731,435.880 333.664,439.254 335.596,441.362 337.529,442.079 339.462,441.362 341.394,439.254 343.327,435.880 345.260,431.434 347.192,426.161 349.125,420.338 351.058,414.241 352.990,408.136 354.923,402.250 356.856,396.766 358.788,391.815 360.721,387.473 362.654,383.771 364.586,380.697 366.519,378.210 368.452,376.246 370.384,374.734 372.317,373.596 374.250,372.761 376.182,372.161 378.115,371.740 380.048,371.451 381.980,371.257 383.913,371.130 385.845,371.049 387.778,370.998 389.711,370.966 391.643,370.947 393.576,370.936 395.509,370.930 397.441,370.926 399.374,370.924 401.307,370.923 403.239,370.922 405.172,370.922 407.105,370.922 409.037,370.922 410.970,370.922 412.903,370.922 414.835,370.922 416.768,370.922 418.701,370.922 420.633,370.922 422.566,370.922 424.499,370.922 426.431,370.922 428.364,370.922 430.297,370.922 432.229,370.922 434.162,370.922 436.095,370.922 438.027,370.922 439.960,370.922 441.892,370.922 443.825,370.922 445.758,370.922 447.690,370.922 449.623,370.922 451.556,370.922 453.488,370.922 455.421,370.922 457.354,370.922 459.286,370.922 461.219,370.922 463.152,370.922 465.084,370.922 467.017,370.922 468.950,370.922 470.882,370.922 472.815,370.922 474.748,370.922 476.680,370.922 478.613,370.922 480.546,370.922 482.478,370.922 484.411,370.922 486.344,370.922 488.276,370.922 490.209,370.922 492.142,370.922 494.074,370.922 496.007,370.922 497.940,370.922 499.872,370.922 501.805,370.922 503.738,370.922 505.670,370.922 507.603,370.922 509.535,370.922 511.468,370.922 513.401,370.922 515.333,370.922 517.266,370.922 519.199,370.922 521.131,370.922 523.064,370.922 524.997,370.922 526.929,370.922 528.862,370.922 530.795,370.922 532.727,370.922 534.660,370.922 536.593,370.922 538.525,370.922 540.458,370.922 542.391,370.922 544.323,370.922 546.256,370.922 548.189,370.922 550.121,370.922 552.054,370.922 553.987,370.922 555.919,370.922 557.852,370.922 559.785,370.922 561.717,370.922 563.650,370.922 565.582,370.922 567.515,370.922 569.448,370.921 571.380,370.921 573.313,370.921 575.246,370.920 577.178,370.919 579.111,370.917 581.044,370.913 582.976,370.908 584.909,370.900 586.842,370.887 588.774,370.868 590.707,370.838 592.640,370.795 594.572,370.732 596.505,370.641 598.438,370.512 600.370,370.330 602.303,370.079 604.236,369.735 606.168,369.274 608.101,368.664 610.034,367.868 611.966,366.847 613.899,365.559 615.832,363.960 617.764,362.011 619.697,359.677 621.630,356.934 623.562,353.777 625.495,350.219 627.428,346.299 629.360,342.086 631.293,337.681 633.225,333.215 635.158,328.847 637.091,324.756 639.023,321.133 640.956,318.165 642.889,316.025 644.821,314.855 646.754,314.751 648.687,315.753 650.619,317.839 652.552,320.924 654.485,324.862 656.417,329.460 658.350,334.491 660.283,339.717 662.215,344.901 664.148,349.834 666.081,354.344 668.013,358.309 669.946,361.661 671.879,364.383 673.811,366.501 675.744,368.077 677.677,369.193 679.609,369.459 681.542,369.206 683.475,368.654 685.407,367.914 687.340,367.025 689.273,366.000 691.205,364.851 693.138,363.597 695.070,362.267 697.003,360.896 698.936,359.525 700.868,358.199 702.801,356.961 704.734,355.855 706.666,354.918 708.599,354.181 710.532,353.668 712.464,353.392 714.397,353.355 716.330,353.553 718.262,353.970 720.195,354.583 722.128,355.366 724.060,356.286 725.993,357.310 727.926,358.404 729.858,359.535 731.791,360.675 733.724,361.796 735.656,362.876 737.589,363.899 739.522,364.851 741.454,365.724 743.387,366.512 745.320,367.215 747.252,367.833 749.185,368.371 751.117,368.832 753.050,369.225 754.983,369.555 756.915,369.830 758.848,370.056 760.781,370.241 762.713,370.390 764.646,370.510 766.579,370.605 768.511,370.680 770.444,370.738 772.377,370.784 774.309,370.819 776.242,370.845 778.175,370.865 780.107,370.880 782.040,370.892 783.973,370.900 785.905,370.906 787.838,370.910 789.771,370.913 791.703,370.915 793.636,370.915 795.569,370.915 797.501,370.915 799.434,370.915 801.367,370.915 803.299,370.915 805.232,370.915 807.165,370.915 809.097,370.915 811.030,370.915 812.962,370.915 814.895,370.915 816.828,370.915 818.760,370.915 820.693,370.915 822.626,370.915 824.558,370.915 826.491,370.915 828.424,370.915 830.356,370.915 832.289,370.915 834.222,370.915 836.154,370.915 838.087,370.915 840.020,370.915 841.952,370.915 843.885,370.915 845.818,370.915 847.750,370.915 849.683,370.915 851.616,370.915 853.548,370.915 855.481,370.915 857.414,370.915 859.346,370.915 861.279,370.915 863.212,370.915 865.144,370.915 867.077,370.915 869.010,370.915 870.942,370.915 872.875,370.915 874.808,370.915 876.740,370.915 878.673,370.915 880.605,370.915 882.538,370.915 884.471,370.915 886.403,370.915 888.336,370.915 890.269,370.915 892.201,370.915 894.134,370.915 896.067,370.915 897.999,370.915 899.932,370.915 901.865,370.915 903.797,370.915 905.730,370.915 907.663,370.915 909.595,370.915 911.528,370.915 913.461,370.915 915.393,370.915 917.326,370.915 919.259,370.915 921.191,370.915 923.124,370.915 925.057,370.915 926.989,370.915 928.922,370.915 930.855,370.915 932.787,370.915 934.720,370.915 936.653,370.915 938.585,370.915 940.518,370.915 942.450,370.915 944.383,370.915 946.316,370.915 948.248,370.915 950.181,370.915 952.114,370.915 954.046,370.915 955.979,370.915 957.912,370.915 959.844,370.915 961.777,370.915 963.710,370.915 965.642,370.915 967.575,370.915 969.508,370.915 971.440,370.915 973.373,370.915 975.306,370.915 977.238,370.915 979.171,370.915 981.104,370.915 983.036,370.915 984.969,370.915 986.902,370.915 988.834,370.915 990.767,370.915 992.700,370.915 994.632,370.915 996.565,370.915 998.497,370.915 1000.430,370.915 1002.363,370.915 1004.295,370.915 1006.228,370.915 1008.161,370.915 1010.093,370.915 1012.026,370.915 1013.959,370.915 1015.891,370.915 1017.824,370.915 1019.757,370.915 1021.689,370.915 1023.622,370.915 1025.555,370.915 1027.487,370.915 1029.420,370.915 1031.353,370.915 1033.285,370.915 1035.218,370.915 1037.151,370.915 1039.083,370.915 1041.016,370.916 1042.949,370.916 1044.881,370.917 1046.814,370.919 1048.747,370.922 1050.679,370.926 1052.612,370.934 1054.545,370.945 1056.477,370.964 1058.410,370.992 1060.343,371.036 1062.275,371.100 1064.208,371.195 1066.140,371.331 1068.073,371.525 1070.006,371.796 1071.938,372.167 1073.871,372.665 1075.804,373.324 1077.736,374.179 1079.669,375.266 1081.602,376.622 1083.534,378.278 1085.467,380.258 1087.400,382.573 1089.332,385.217 1091.265,388.163 1093.198,391.359 1095.130,394.724 1097.063,398.155 1098.996,401.524 1100.928,404.687 1102.861,407.492 1104.794,409.793 1106.726,411.456 1108.659,412.378 1110.592,412.493 1112.524,411.778 1114.457,410.264 1116.390,408.025 1118.322,405.178 1120.255,401.872 1122.188,398.272 1124.120,394.552 1126.053,390.870 1127.985,387.370 1129.918,384.157 1131.851,381.315 1133.783,378.868 1135.716,376.861 1137.649,375.201 1139.581,374.004 1141.514,372.913 1143.447,372.491 1145.379,371.452 1147.312,372.211 1149.245,369.799 1151.177,374.038 1153.110,365.189 1155.043,382.661 1156.975,347.583 1158.908,417.664 1160.841,277.461 1162.773,557.845 1164.706,-2.935 1166.639,1118.618 1168.571,-1124.490 1170.504,3361.725 1172.437,-5610.706 1174.369,12334.156 1176.302,-23555.568 1178.235,48223.880 1180.167,-95335.015 1182.100,191782.775 1184.033,-382452.805 1185.965,766018.355 1187.898,-1530923.964 1189.830,3062960.673 1191.763,-6124808.602 1193.696,12250729.949 1195.628,-24500347.154 1197.561,49001807.053 1199.494,-98002501.361 1201.426,196006115.467 1203.359,-392011118.190 1205.292,784023349.124 1207.224,-1568045585.504 1209.157,3136092283.752 1211.090,-6272183454.760 1213.022,12544368022.264 1214.955,-25088734931.784 1216.888,50177470976.312 1218.820,-100354940839.879 1220.753,200709882792.502 1222.686,-401419764472.259 1224.618,802839530057.263 1226.551,-1605679059001.782 1228.484,3211358119116.306 1230.416,-6422716237119.876 1232.349,12845432475352.494 1234.282,-25690864949592.266 1236.214,51381729900297.305 1238.147,-102763459799481.840 1240.080,205526919600076.190 1242.012,-411053839199040.000 1243.945,822107678399194.000 1245.878,-1644215356797279.000 1247.810,3288430713595670.000 1249.743,-6576861427190222.000 1251.675,13153722854381536.000 1253.608,-26307445708762032.000 1255.541,52614891417525184.000 1257.473,-105229782835049180.000 1259.406,210459565670099710.000 1261.339,-420919131340198080.000 1263.271,841838262680398460.000 1265.204,-1683676525360796200.000 1267.137,3367353050721596400.000 1269.069,-6734706101443195900.000 1271.002,13469412202886388000.000 1272.935,-26938824405772804000.000 1274.867,53877648811545592000.000 1276.800,-107755297623091250000.000 1278.733,215510595246182600000.000 1280.665,-431021190492364600000.000 1282.598,862042380984731960000.000 1284.531,-1724084761969462600000.000 1286.463,3448169523938929900000.000 1288.396,-6896339047877858800000.000 1290.329,13792678095755705000000.000 1292.261,-27585356191511427000000.000 1294.194,55170712383022921000000.000 1296.127,-110341424766045860000000.000 1298.059,220682849532091580000000.000 1299.992,-441365699064183770000000.000 1301.925,882731398128368210000000.000 1303.857,-1765462796256737500000000.000 1305.790,3530925592513478200000000.000 1307.723,-7061851185026957500000000.000 1309.655,14123702370053904000000000.000 1311.588,-28247404740107830000000000.000 1313.520,56494809480215583000000000.000 1315.453,-112989618960431300000000000.000 1317.386,225979237920862710000000000.000 1319.318,-451958475841725620000000000.000 1321.251,903916951683451520000000000.000 1323.184,-1807833903366901700000000000.000 1325.116,3615667806733805000000000000.000 1327.049,-7231335613467616600000000000.000 1328.982,14462671226935227000000000000.000 1330.914,-28925342453870488000000000000.000 1332.847,57850684907741038000000000000.000 1334.780,-115701369815482020000000000000.000 1336.712,231402739630964120000000000000.000 1338.645,-462805479261928380000000000000.000 1340.578,925610958523857030000000000000.000 1342.510,-1851221917047714100000000000000.000 1344.443,3702443834095431500000000000000.000 1346.376,-7404887668190866400000000000000.000 1348.308,14809775336381740000000000000000.000 1350.241,-29619550672763488000000000000000.000 1352.174,59239101345526958000000000000000.000 1354.106,-29619550672763488000000000000000.000 "/>
<g>
</g>
</g>
<g id="ID000006" clip-path="url(#ID000001)" >
      <polyline fill="none" stroke="#000000" stroke-width="0.5pt" stroke-dasharray="none" points="677.677,684.188 677.677,57.656 "/>
<g>
</g>
</g>
<g id="ID000007" clip-path="url(#ID000001)" >
      <polyline fill="none" stroke="#000000" stroke-width="0.5pt" stroke-dasharray="none" points="791.703,684.188 791.703,57.656 "/>
<g>
</g>
</g>
<g id="ID000008" clip-path="url(#ID000001)" >
      <polyline fill="none" stroke="#d85218" stroke-width="0.5pt" stroke-dasharray="none" points="196.445,370.922 198.378,370.922 200.310,370.922 202.243,370.922 204.176,370.922 206.108,370.922 208.041,370.922 209.974,370.922 211.906,370.922 213.839,370.922 215.772,370.922 217.704,370.922 219.637,370.922 221.570,370.922 223.502,370.922 225.435,370.922 227.368,370.922 229.300,370.922 231.233,370.922 233.166,370.922 235.098,370.922 237.031,370.922 238.964,370.922 240.896,370.922 242.829,370.922 244.762,370.922 246.694,370.922 248.627,370.922 250.560,370.922 252.492,370.922 254.425,370.922 256.358,370.922 258.290,370.922 260.223,370.922 262.155,370.922 264.088,370.922 266.021,370.922 267.953,370.922 269.886,370.922 271.819,370.922 273.751,370.923 275.684,370.924 277.617,370.926 279.549,370.930 281.482,370.936 283.415,370.947 285.347,370.966 287.280,370.998 289.213,371.049 291.145,371.130 293.078,371.257 295.011,371.451 296.943,371.740 298.876,372.161 300.809,372.761 302.741,373.596 304.674,374.734 306.607,376.246 308.539,378.210 310.472,380.697 312.405,383.771 314.337,387.473 316.270,391.815 318.202,396.766 320.135,402.250 322.068,408.136 324.000,414.241 325.933,420.338 327.866,426.161 329.798,431.434 331.731,435.880 333.664,439.254 335.596,441.362 337.529,442.079 339.462,441.362 341.394,439.254 343.327,435.880 345.260,431.434 347.192,426.161 349.125,420.338 351.058,414.241 352.990,408.136 354.923,402.250 356.856,396.766 358.788,391.815 360.721,387.473 362.654,383.771 364.586,380.697 366.519,378.210 368.452,376.246 370.384,374.734 372.317,373.596 374.250,372.761 376.182,372.161 378.115,371.740 380.048,371.451 381.980,371.257 383.913,371.130 385.845,371.049 387.778,370.998 389.711,370.966 391.643,370.947 393.576,370.936 395.509,370.930 397.441,370.926 399.374,370.924 401.307,370.923 403.239,370.922 405.172,370.922 407.105,370.922 409.037,370.922 410.970,370.922 412.903,370.922 414.835,370.922 416.768,370.922 418.701,370.922 420.633,370.922 422.566,370.922 424.499,370.922 426.431,370.922 428.364,370.922 430.297,370.922 432.229,370.922 434.162,370.922 436.095,370.922 438.027,370.922 439.960,370.922 441.892,370.922 443.825,370.922 445.758,370.922 447.690,370.922 449.623,370.922 451.556,370.922 453.488,370.922 455.421,370.922 457.354,370.922 459.286,370.922 461.219,370.922 463.152,370.922 465.084,370.922 467.017,370.922 468.950,370.922 470.882,370.922 472.815,370.922 474.748,370.922 476.680,370.922 478.613,370.922 480.546,370.922 482.478,370.922 484.411,370.922 486.344,370.922 488.276,370.922 490.209,370.922 492.142,370.922 494.074,370.922 496.007,370.922 497.940,370.922 499.872,370.922 501.805,370.922 503.738,370.922 505.670,370.922 507.603,370.922 509.535,370.922 511.468,370.922 513.401,370.922 515.333,370.922 517.266,370.922 519.199,370.922 521.131,370.922 523.064,370.922 524.997,370.922 526.929,370.922 528.862,370.922 530.795,370.922 532.727,370.922 534.660,370.922 536.593,370.922 538.525,370.922 540.458,370.922 542.391,370.922 544.323,370.922 546.256,370.922 548.189,370.922 550.121,370.922 552.054,370.922 553.987,370.922 555.919,370.922 557.852,370.922 559.785,370.922 561.717,370.922 563.650,370.922 565.582,370.922 567.515,370.922 569.448,370.921 571.380,370.921 573.313,370.921 575.246,370.920 577.178,370.919 579.111,370.917 581.044,370.913 582.976,370.908 584.909,370.900 586.842,370.887 588.774,370.868 590.707,370.838 592.640,370.795 594.572,370.732 596.505,370.641 598.438,370.512 600.370,370.330 602.303,370.079 604.236,369.735 606.168,369.274 608.101,368.664 610.034,367.868 611.966,366.847 613.899,365.559 615.832,363.960 617.764,362.011 619.697,359.677 621.630,356.934 623.562,353.777 625.495,350.219 627.428,346.299 629.360,342.086 631.293,337.681 633.225,333.215 635.158,328.847 637.091,324.756 639.023,321.133 640.956,318.165 642.889,316.025 644.821,314.855 646.754,314.751 648.687,315.753 650.619,317.839 652.552,320.924 654.485,324.862 656.417,329.460 658.350,334.491 660.283,339.717 662.215,344.901 664.148,349.834 666.081,354.344 668.013,358.309 669.946,361.661 671.879,364.383 673.811,366.501 675.744,368.077 677.677,369.193 679.609,369.459 681.542,369.206 683.475,368.654 685.407,367.914 687.340,367.025 689.273,366.000 691.205,364.851 693.138,363.597 695.070,362.267 697.003,360.896 698.936,359.525 700.868,358.199 702.801,356.961 704.734,355.855 706.666,354.918 708.599,354.181 710.532,353.668 712.464,353.392 714.397,353.355 716.330,353.553 718.262,353.970 720.195,354.583 722.128,355.366 724.060,356.286 725.993,357.310 727.926,358.404 729.858,359.535 731.791,360.675 733.724,361.796 735.656,362.876 737.589,363.899 739.522,364.851 741.454,365.724 743.387,366.512 745.320,367.215 747.252,367.833 749.185,368.371 751.117,368.832 753.050,369.225 754.983,369.555 756.915,369.830 758.848,370.056 760.781,370.241 762.713,370.390 764.646,370.510 766.579,370.605 768.511,370.680 770.444,370.738 772.377,370.784 774.309,370.819 776.242,370.845 778.175,370.865 780.107,370.880 782.040,370.892 783.973,370.900 785.905,370.906 787.838,370.910 789.771,370.913 791.703,370.915 793.636,370.915 795.569,370.915 797.501,370.915 799.434,370.915 801.367,370.915 803.299,370.915 805.232,370.915 807.165,370.915 809.097,370.915 811.030,370.915 812.962,370.915 814.895,370.915 816.828,370.915 818.760,370.915 820.693,370.915 822.626,370.915 824.558,370.915 826.491,370.915 828.424,370.915 830.356,370.915 832.289,370.915 834.222,370.915 836.154,370.915 838.087,370.915 840.020,370.915 841.952,370.915 843.885,370.915 845.818,370.915 847.750,370.915 849.683,370.915 851.616,370.915 853.548,370.915 855.481,370.915 857.414,370.915 859.346,370.915 861.279,370.915 863.212,370.915 865.144,370.915 867.077,370.915 869.010,370.915 870.942,370.915 872.875,370.915 874.808,370.915 876.740,370.915 878.673,370.915 880.605,370.915 882.538,370.915 884.471,370.915 886.403,370.915 888.336,370.915 890.269,370.915 892.201,370.915 894.134,370.915 896.067,370.915 897.999,370.915 899.932,370.915 901.865,370.915 903.797,370.915 905.730,370.915 907.663,370.915 909.595,370.915 911.528,370.915 913.461,370.915 915.393,370.915 917.326,370.915 919.259,370.915 921.191,370.915 923.124,370.915 925.057,370.915 926.989,370.915 928.922,370.915 930.855,370.915 932.787,370.915 934.720,370.915 936.653,370.915 938.585,370.915 940.518,370.915 942.450,370.915 944.383,370.915 946.316,370.915 948.248,370.915 950.181,370.915 952.114,370.915 954.046,370.915 955.979,370.915 957.912,370.915 959.844,370.915 961.777,370.915 963.710,370.915 965.642,370.915 967.575,370.915 969.508,370.915 971.440,370.915 973.373,370.915 975.306,370.915 977.238,370.915 979.171,370.915 981.104,370.915 983.036,370.915 984.969,370.915 986.902,370.915 988.834,370.915 990.767,370.915 992.700,370.915 994.632,370.915 996.565,370.915 998.497,370.915 1000.430,370.915 1002.363,370.915 1004.295,370.915 1006.228,370.915 1008.161,370.915 1010.093,370.915 1012.026,370.915 1013.959,370.915 1015.891,370.915 1017.824,370.915 1019.757,370.915 1021.689,370.915 1023.622,370.915 1025.555,370.915 1027.487,370.915 1029.420,370.915 1031.353,370.915 1033.285,370.915 1035.218,370.915 1037.151,370.915 1039.083,370.915 1041.016,370.916 1042.949,370.916 1044.881,370.917 1046.814,370.919 1048.747,370.922 1050.679,370.926 1052.612,370.934 1054.545,370.945 1056.477,370.964 1058.410,370.992 1060.343,371.036 1062.275,371.100 1064.208,371.195 1066.140,371.331 1068.073,371.525 1070.006,371.796 1071.938,372.167 1073.871,372.665 1075.804,373.324 1077.736,374.179 1079.669,375.266 1081.602,376.622 1083.534,378.278 1085.467,380.258 1087.400,382.573 1089.332,385.217 1091.265,388.163 1093.198,391.359 1095.130,394.724 1097.063,398.155 1098.996,401.524 1100.928,404.687 1102.861,407.492 1104.794,409.793 1106.726,411.456 1108.659,412.378 1110.592,412.493 1112.524,411.778 1114.457,410.264 1116.390,408.025 1118.322,405.178 1120.255,401.872 1122.188,398.272 1124.120,394.552 1126.053,390.870 1127.985,387.370 1129.918,384.157 1131.851,381.315 1133.783,378.868 1135.716,376.861 1137.649,375.201 1139.581,374.004 1141.514,372.913 1143.447,372.491 1145.379,371.452 1147.312,372.211 1149.245,369.799 1151.177,374.038 1153.110,365.189 1155.043,382.661 1156.975,347.583 1158.908,417.664 1160.841,277.461 1162.773,557.845 1164.706,-2.935 1166.639,1118.618 1168.571,-1124.490 1170.504,3361.725 1172.437,-5610.706 1174.369,12334.156 1176.302,-23555.568 1178.235,48223.880 1180.167,-95335.015 1182.100,191782.775 1184.033,-382452.805 1185.965,766018.355 1187.898,-1530923.964 1189.830,3062960.673 1191.763,-6124808.602 1193.696,12250729.949 1195.628,-24500347.154 1197.561,49001807.053 1199.494,-98002501.361 1201.426,196006115.467 1203.359,-392011118.190 1205.292,784023349.124 1207.224,-1568045585.504 1209.157,3136092283.752 1211.090,-6272183454.760 1213.022,12544368022.264 1214.955,-25088734931.784 1216.888,50177470976.312 1218.820,-100354940839.879 1220.753,200709882792.502 1222.686,-401419764472.259 1224.618,802839530057.263 1226.551,-1605679059001.782 1228.484,3211358119116.306 1230.416,-6422716237119.876 1232.349,12845432475352.494 1234.282,-25690864949592.266 1236.214,51381729900297.305 1238.147,-102763459799481.840 1240.080,205526919600076.190 1242.012,-411053839199040.000 1243.945,822107678399194.000 1245.878,-1644215356797279.000 1247.810,3288430713595670.000 1249.743,-6576861427190222.000 1251.675,13153722854381536.000 1253.608,-26307445708762032.000 1255.541,52614891417525184.000 1257.473,-105229782835049180.000 1259.406,210459565670099710.000 1261.339,-420919131340198080.000 1263.271,841838262680398460.000 1265.204,-1683676525360796200.000 1267.137,3367353050721596400.000 1269.069,-6734706101443195900.000 1271.002,13469412202886388000.000 1272.935,-26938824405772804000.000 1274.867,53877648811545592000.000 1276.800,-107755297623091250000.000 1278.733,215510595246182600000.000 1280.665,-431021190492364600000.000 1282.598,862042380984731960000.000 1284.531,-1724084761969462600000.000 1286.463,3448169523938929900000.000 1288.396,-6896339047877858800000.000 1290.329,13792678095755705000000.000 1292.261,-27585356191511427000000.000 1294.194,55170712383022921000000.000 1296.127,-110341424766045860000000.000 1298.059,220682849532091580000000.000 1299.992,-441365699064183770000000.000 1301.925,882731398128368210000000.000 1303.857,-1765462796256737500000000.000 1305.790,3530925592513478200000000.000 1307.723,-7061851185026957500000000.000 1309.655,14123702370053904000000000.000 1311.588,-28247404740107830000000000.000 1313.520,56494809480215583000000000.000 1315.453,-112989618960431300000000000.000 1317.386,225979237920862710000000000.000 1319.318,-451958475841725620000000000.000 1321.251,903916951683451520000000000.000 1323.184,-1807833903366901700000000000.000 1325.116,3615667806733805000000000000.000 1327.049,-7231335613467616600000000000.000 1328.982,14462671226935227000000000000.000 1330.914,-28925342453870488000000000000.000 1332.847,57850684907741038000000000000.000 1334.780,-115701369815482020000000000000.000 1336.712,231402739630964120000000000000.000 1338.645,-462805479261928380000000000000.000 1340.578,925610958523857030000000000000.000 1342.510,-1851221917047714100000000000000.000 1344.443,3702443834095431500000000000000.000 1346.376,-7404887668190866400000000000000.000 1348.308,14809775336381740000000000000000.000 1350.241,-29619550672763488000000000000000.000 1352.174,59239101345526958000000000000000.000 1354.106,-29619550672763488000000000000000.000 "/>
<g>
</g>
</g>
    </g>
    <g>
      <polyline fill="none" stroke="#262626" stroke-width="0.5pt" stroke-dasharray="none" points="194.513,684.188 194.513,672.592 "/>
      <polyline fill="none" stroke="#262626" stroke-width="0.5pt" stroke-dasharray="none" points="387.778,684.188 387.778,672.592 "/>
      <polyline fill="none" stroke="#262626" stroke-width="0.5pt" stroke-dasharray="none" points="581.044,684.188 581.044,672.592 "/>
      <polyline fill="none" stroke="#262626" stroke-width="0.5pt" stroke-dasharray="none" points="774.309,684.188 774.309,672.592 "/>
      <polyline fill="none" stroke="#262626" stroke-width="0.5pt" stroke-dasharray="none" points="967.575,684.188 967.575,672.592 "/>
      <polyline fill="none" stroke="#262626" stroke-width="0.5pt" stroke-dasharray="none" points="1160.841,684.188 1160.841,672.592 "/>
      <polyline fill="none" stroke="#262626" stroke-width="0.5pt" stroke-dasharray="none" points="1354.106,684.188 1354.106,672.592 "/>
      <polyline fill="none" stroke="#262626" stroke-width="0.5pt" stroke-dasharray="none" points="194.513,684.188 1354.106,684.188 "/>
  <g transform="translate(194.513,707.781)">
    <g transform="rotate(-0.0)">
      <text x="0.000" y="0.000" font-family="times new roman" text-anchor="middle" font-size="9pt" fill="#262626" >0</text>
    </g>
  </g>
  <g transform="translate(387.778,707.781)">
    <g transform="rotate(-0.0)">
      <text x="0.000" y="0.000" font-family="times new roman" text-anchor="middle" font-size="9pt" fill="#262626" >100</text>
    </g>
  </g>
  <g transform="translate(581.044,707.781)">
    <g transform="rotate(-0.0)">
      <text x="0.000" y="0.000" font-family="times new roman" text-anchor="middle" font-size="9pt" fill="#262626" >200</text>
    </g>
  </g>
  <g transform="translate(774.309,707.781)">
    <g transform="rotate(-0.0)">
      <text x="0.000" y="0.000" font-family="times new roman" text-anchor="middle" font-size="9pt" fill="#262626" >300</text>
    </g>
  </g>
  <g transform="translate(967.575,707.781)">
    <g transform="rotate(-0.0)">
      <text x="0.000" y="0.000" font-family="times new roman" text-anchor="middle" font-size="9pt" fill="#262626" >400</text>
    </g>
  </g>
  <g transform="translate(1160.841,707.781)">
    <g transform="rotate(-0.0)">
      <text x="0.000" y="0.000" font-family="times new roman" text-anchor="middle" font-size="9pt" fill="#262626" >500</text>
    </g>
  </g>
  <g transform="translate(1354.106,707.781)">
    <g transform="rotate(-0.0)">
      <text x="0.000" y="0.000" font-family="times new roman" text-anchor="middle" font-size="9pt" fill="#262626" >600</text>
    </g>
  </g>
      <polyline fill="none" stroke="#262626" stroke-width="0.5pt" stroke-dasharray="none" points="194.513,684.188 206.108,684.188 "/>
      <polyline fill="none" stroke="#262626" stroke-width="0.5pt" stroke-dasharray="none" points="194.513,621.534 206.108,621.534 "/>
      <polyline fill="none" stroke="#262626" stroke-width="0.5pt" stroke-dasharray="none" points="194.513,558.881 206.108,558.881 "/>
      <polyline fill="none" stroke="#262626" stroke-width="0.5pt" stroke-dasharray="none" points="194.513,496.228 206.108,496.228 "/>
      <polyline fill="none" stroke="#262626" stroke-width="0.5pt" stroke-dasharray="none" points="194.513,433.575 206.108,433.575 "/>
      <polyline fill="none" stroke="#262626" stroke-width="0.5pt" stroke-dasharray="none" points="194.513,370.922 206.108,370.922 "/>
      <polyline fill="none" stroke="#262626" stroke-width="0.5pt" stroke-dasharray="none" points="194.513,308.269 206.108,308.269 "/>
      <polyline fill="none" stroke="#262626" stroke-width="0.5pt" stroke-dasharray="none" points="194.513,245.616 206.108,245.616 "/>
      <polyline fill="none" stroke="#262626" stroke-width="0.5pt" stroke-dasharray="none" points="194.513,182.962 206.108,182.962 "/>
      <polyline fill="none" stroke="#262626" stroke-width="0.5pt" stroke-dasharray="none" points="194.513,120.309 206.108,120.309 "/>
      <polyline fill="none" stroke="#262626" stroke-width="0.5pt" stroke-dasharray="none" points="194.513,57.656 206.108,57.656 "/>
      <polyline fill="none" stroke="#262626" stroke-width="0.5pt" stroke-dasharray="none" points="194.513,684.188 194.513,57.656 "/>
  <g transform="translate(171.321,688.406)">
    <g transform="rotate(-0.0)">
      <text x="0.000" y="0.000" font-family="times new roman" text-anchor="end" font-size="9pt" fill="#262626" >-1</text>
    </g>
  </g>
  <g transform="translate(171.321,625.753)">
    <g transform="rotate(-0.0)">
      <text x="0.000" y="0.000" font-family="times new roman" text-anchor="end" font-size="9pt" fill="#262626" >-0.8</text>
    </g>
  </g>
  <g transform="translate(171.321,563.100)">
    <g transform="rotate(-0.0)">
      <text x="0.000" y="0.000" font-family="times new roman" text-anchor="end" font-size="9pt" fill="#262626" >-0.6</text>
    </g>
  </g>
  <g transform="translate(171.321,500.447)">
    <g transform="rotate(-0.0)">
      <text x="0.000" y="0.000" font-family="times new roman" text-anchor="end" font-size="9pt" fill="#262626" >-0.4</text>
    </g>
  </g>
  <g transform="translate(171.321,437.794)">
    <g transform="rotate(-0.0)">
      <text x="0.000" y="0.000" font-family="times new roman" text-anchor="end" font-size="9pt" fill="#262626" >-0.2</text>
    </g>
  </g>
  <g transform="translate(171.321,375.141)">
    <g transform="rotate(-0.0)">
      <text x="0.000" y="0.000" font-family="times new roman" text-anchor="end" font-size="9pt" fill="#262626" >0</text>
    </g>
  </g>
  <g transform="translate(171.321,312.487)">
    <g transform="rotate(-0.0)">
      <text x="0.000" y="0.000" font-family="times new roman" text-anchor="end" font-size="9pt" fill="#262626" >0.2</text>
    </g>
  </g>
  <g transform="translate(171.321,249.834)">
    <g transform="rotate(-0.0)">
      <text x="0.000" y="0.000" font-family="times new roman" text-anchor="end" font-size="9pt" fill="#262626" >0.4</text>
    </g>
  </g>
  <g transform="translate(171.321,187.181)">
    <g transform="rotate(-0.0)">
      <text x="0.000" y="0.000" font-family="times new roman" text-anchor="end" font-size="9pt" fill="#262626" >0.6</text>
    </g>
  </g>
  <g transform="translate(171.321,124.528)">
    <g transform="rotate(-0.0)">
      <text x="0.000" y="0.000" font-family="times new roman" text-anchor="end" font-size="9pt" fill="#262626" >0.8</text>
    </g>
  </g>
  <g transform="translate(171.321,61.875)">
    <g transform="rotate(-0.0)">
      <text x="0.000" y="0.000" font-family="times new roman" text-anchor="end" font-size="9pt" fill="#262626" >1</text>
    </g>
  </g>
      <polyline fill="none" stroke="#262626" stroke-width="0.5pt" stroke-dasharray="none" points="194.513,684.188 194.513,677.922 "/>
      <polyline fill="none" stroke="#262626" stroke-width="0.5pt" stroke-dasharray="none" points="194.513,684.188 194.513,677.922 "/>
      <polyline fill="none" stroke="#262626" stroke-width="0.5pt" stroke-dasharray="none" points="194.513,684.187 194.513,677.922 "/>
      <polyline fill="none" stroke="#262626" stroke-width="0.5pt" stroke-dasharray="none" points="194.513,684.188 194.513,684.187 "/>
    </g>
  </g>
  </g>
</svg>
