<?xml version="1.0" encoding="utf-8" standalone="no"?><!DOCTYPE svg PUBLIC "-//W3C//DTD SVG 1.1//EN" "http://www.w3.org/Graphics/SVG/1.1/DTD/svg11.dtd">
<svg preserveAspectRatio="xMinYMin meet" width="100%" height="100%" viewBox="0 0 1496.250 768.750"  version="1.1" xmlns="http://www.w3.org/2000/svg" xmlns:xlink="http://www.w3.org/1999/xlink">
  <desc>Matlab Figure Converted by PLOT2SVG written by Juerg Schwizer</desc>
  <g id="topgroup">
  <rect x="0" y="0" width="1496.250" height="768.750" fill="#ffffff" stroke="none" />
  <g id ="ID000000">
  <clipPath id="ID000001">
    <rect x="194.513" y="57.656" width="1159.594" height="626.531"/>
  </clipPath>
      <polygon fill="#ffffff" fill-opacity="1.00" stroke="none" stroke-width="0.5pt" stroke-opacity="1.00" stroke-dasharray="none" points="194.513,684.188 1354.106,684.188 1354.106,57.656 194.513,57.656 "/>
      <polygon fill="#ffffff" fill-opacity="1.00" stroke="none" stroke-width="0.5pt" stroke-opacity="1.00" stroke-dasharray="none" points="194.513,57.656 1354.106,57.656 1354.106,57.656 194.513,57.656 "/>
      <polygon fill="#ffffff" fill-opacity="1.00" stroke="none" stroke-width="0.5pt" stroke-opacity="1.00" stroke-dasharray="none" points="194.513,684.188 194.513,684.187 194.513,57.656 194.513,57.656 "/>
    <g>
<g id="ID000002" >
</g>
<g id="ID000003" >
</g>
<g id="ID000004" >
  <g transform="translate(774.310,52.503)">
    <g transform="rotate(-0.0)">
      <text x="0.000" y="0.000" font-family="times new roman" text-anchor="middle" font-size="10pt" font-weight="bold" fill="#000000" >E-field at Time Step 250</text>
    </g>
  </g>
</g>
<g id="ID000005" clip-path="url(#ID000001)" >
      <polyline fill="none" stroke="#000000" stroke-width="1.4pt" stroke-dasharray="none" points="196.445,370.922 198.378,370.922 200.310,370.922 202.243,370.922 204.176,370.922 206.108,370.923 208.041,370.924 209.974,370.926 211.906,370.930 213.839,370.936 215.772,370.947 217.704,370.966 219.637,370.998 221.570,371.049 223.502,371.130 225.435,371.257 227.368,371.451 229.300,371.740 231.233,372.161 233.166,372.761 235.098,373.596 237.031,374.734 238.964,376.246 240.896,378.210 242.829,380.697 244.762,383.771 246.694,387.473 248.627,391.815 250.560,396.766 252.492,402.250 254.425,408.136 256.358,414.241 258.290,420.338 260.223,426.162 262.155,431.434 264.088,435.880 266.021,439.254 267.953,441.362 269.886,442.079 271.819,441.362 273.751,439.254 275.684,435.880 277.617,431.434 279.549,426.162 281.482,420.338 283.415,414.241 285.347,408.136 287.280,402.250 289.213,396.766 291.145,391.815 293.078,387.473 295.011,383.771 296.943,380.697 298.876,378.210 300.809,376.246 302.741,374.734 304.674,373.596 306.607,372.761 308.539,372.161 310.472,371.740 312.405,371.451 314.337,371.257 316.270,371.130 318.202,371.049 320.135,370.998 322.068,370.966 324.000,370.947 325.933,370.936 327.866,370.930 329.798,370.926 331.731,370.924 333.664,370.923 335.596,370.923 337.529,370.922 339.462,370.922 341.394,370.922 343.327,370.922 345.260,370.922 347.192,370.922 349.125,370.922 351.058,370.922 352.990,370.922 354.923,370.922 356.856,370.922 358.788,370.922 360.721,370.922 362.654,370.922 364.586,370.922 366.519,370.922 368.452,370.922 370.384,370.922 372.317,370.922 374.250,370.922 376.182,370.922 378.115,370.922 380.048,370.922 381.980,370.922 383.913,370.922 385.845,370.922 387.778,370.922 389.711,370.922 391.643,370.922 393.576,370.922 395.509,370.922 397.441,370.922 399.374,370.922 401.307,370.922 403.239,370.922 405.172,370.922 407.105,370.922 409.037,370.922 410.970,370.922 412.903,370.922 414.835,370.922 416.768,370.922 418.701,370.922 420.633,370.922 422.566,370.922 424.499,370.922 426.431,370.922 428.364,370.922 430.297,370.922 432.229,370.922 434.162,370.922 436.095,370.922 438.027,370.922 439.960,370.922 441.892,370.922 443.825,370.922 445.758,370.922 447.690,370.922 449.623,370.922 451.556,370.922 453.488,370.922 455.421,370.922 457.354,370.922 459.286,370.922 461.219,370.922 463.152,370.922 465.084,370.922 467.017,370.922 468.950,370.922 470.882,370.922 472.815,370.922 474.748,370.922 476.680,370.922 478.613,370.922 480.546,370.922 482.478,370.922 484.411,370.922 486.344,370.922 488.276,370.922 490.209,370.922 492.142,370.922 494.074,370.922 496.007,370.922 497.940,370.922 499.872,370.922 501.805,370.922 503.738,370.921 505.670,370.921 507.603,370.920 509.535,370.919 511.468,370.917 513.401,370.913 515.333,370.908 517.266,370.900 519.199,370.887 521.131,370.868 523.064,370.839 524.997,370.795 526.929,370.732 528.862,370.641 530.795,370.512 532.727,370.330 534.660,370.079 536.593,369.735 538.525,369.274 540.458,368.664 542.391,367.868 544.323,366.847 546.256,365.559 548.189,363.960 550.121,362.011 552.054,359.677 553.987,356.934 555.919,353.777 557.852,350.219 559.785,346.299 561.717,342.086 563.650,337.681 565.582,333.215 567.515,328.847 569.448,324.756 571.380,321.133 573.313,318.165 575.246,316.025 577.178,314.855 579.111,314.751 581.044,315.753 582.976,317.840 584.909,320.924 586.842,324.862 588.774,329.460 590.707,334.492 592.640,339.717 594.572,344.901 596.505,349.834 598.438,354.344 600.370,358.309 602.303,361.662 604.236,364.383 606.168,366.501 608.101,368.077 610.034,369.193 611.966,369.941 613.899,370.412 615.832,370.686 617.764,370.832 619.697,370.899 621.630,370.924 623.562,370.929 625.495,370.927 627.428,370.924 629.360,370.922 631.293,370.921 633.225,370.921 635.158,370.922 637.091,370.922 639.023,370.922 640.956,370.922 642.889,370.922 644.821,370.922 646.754,370.922 648.687,370.922 650.619,370.922 652.552,370.922 654.485,370.922 656.417,370.922 658.350,370.922 660.283,370.922 662.215,370.922 664.148,370.922 666.081,370.922 668.013,370.922 669.946,370.922 671.879,370.922 673.811,370.922 675.744,370.922 677.677,370.922 679.609,370.922 681.542,370.922 683.475,370.922 685.407,370.922 687.340,370.922 689.273,370.922 691.205,370.922 693.138,370.922 695.070,370.922 697.003,370.922 698.936,370.922 700.868,370.922 702.801,370.922 704.734,370.922 706.666,370.922 708.599,370.922 710.532,370.922 712.464,370.922 714.397,370.922 716.330,370.922 718.262,370.922 720.195,370.922 722.128,370.922 724.060,370.922 725.993,370.922 727.926,370.922 729.858,370.921 731.791,370.920 733.724,370.919 735.656,370.919 737.589,370.921 739.522,370.925 741.454,370.932 743.387,370.941 745.320,370.952 747.252,370.961 749.185,370.963 751.117,370.948 753.050,370.905 754.983,370.818 756.915,370.668 758.848,370.434 760.781,370.095 762.713,369.628 764.646,369.011 766.579,368.224 768.511,367.248 770.444,366.069 772.377,364.672 774.309,363.048 776.242,361.197 778.175,359.131 780.107,356.885 782.040,354.526 783.973,352.160 785.905,349.936 787.838,348.031 789.771,346.630 791.703,345.887 793.636,345.887 795.569,345.887 797.501,345.887 799.434,345.887 801.367,345.887 803.299,345.887 805.232,345.887 807.165,345.887 809.097,345.887 811.030,345.887 812.962,345.887 814.895,345.887 816.828,345.887 818.760,345.887 820.693,345.887 822.626,345.887 824.558,345.887 826.491,345.887 828.424,345.887 830.356,345.887 832.289,345.887 834.222,345.887 836.154,345.887 838.087,345.887 840.020,345.887 841.952,345.887 843.885,345.887 845.818,345.887 847.750,345.887 849.683,345.887 851.616,345.887 853.548,345.887 855.481,345.887 857.414,345.887 859.346,345.887 861.279,345.887 863.212,345.887 865.144,345.887 867.077,345.887 869.010,345.887 870.942,345.887 872.875,345.887 874.808,345.887 876.740,345.887 878.673,345.887 880.605,345.887 882.538,345.887 884.471,345.887 886.403,345.887 888.336,345.887 890.269,345.887 892.201,345.887 894.134,345.887 896.067,345.887 897.999,345.887 899.932,345.887 901.865,345.887 903.797,345.887 905.730,345.887 907.663,345.887 909.595,345.887 911.528,345.887 913.461,345.887 915.393,345.887 917.326,345.887 919.259,345.887 921.191,345.887 923.124,345.887 925.057,345.887 926.989,345.887 928.922,345.887 930.855,345.887 932.787,345.887 934.720,345.887 936.653,345.887 938.585,345.887 940.518,345.887 942.450,345.887 944.383,345.887 946.316,345.887 948.248,345.887 950.181,345.887 952.114,345.887 954.046,345.887 955.979,345.887 957.912,345.887 959.844,345.887 961.777,345.887 963.710,345.887 965.642,345.887 967.575,345.887 969.508,345.887 971.440,345.887 973.373,345.887 975.306,345.888 977.238,345.889 979.171,345.891 981.104,345.893 983.036,345.898 984.969,345.905 986.902,345.917 988.834,345.936 990.767,345.964 992.700,346.007 994.632,346.072 996.565,346.167 998.497,346.303 1000.430,346.497 1002.363,346.768 1004.295,347.138 1006.228,347.637 1008.161,348.296 1010.093,349.151 1012.026,350.238 1013.959,351.594 1015.891,353.250 1017.824,355.229 1019.757,357.545 1021.689,360.189 1023.622,363.135 1025.555,366.331 1027.487,369.696 1029.420,373.127 1031.353,376.496 1033.285,379.659 1035.218,382.464 1037.151,384.765 1039.083,386.428 1041.016,387.350 1042.949,387.464 1044.881,386.750 1046.814,385.236 1048.747,382.997 1050.679,380.150 1052.612,376.843 1054.545,373.244 1056.477,369.524 1058.410,365.842 1060.343,362.342 1062.275,359.128 1064.208,356.287 1066.140,353.839 1068.073,351.833 1070.006,350.172 1071.938,348.976 1073.871,347.885 1075.804,347.463 1077.736,346.424 1079.669,347.183 1081.602,344.771 1083.534,349.010 1085.467,340.161 1087.400,357.633 1089.332,322.555 1091.265,392.635 1093.198,252.432 1095.130,532.816 1097.063,-27.963 1098.996,1093.590 1100.928,-1149.518 1102.861,3336.697 1104.794,-5635.734 1106.726,12309.128 1108.659,-23580.596 1110.592,48198.852 1112.524,-95360.043 1114.457,191757.747 1116.390,-382477.833 1118.322,765993.326 1120.255,-1530948.993 1122.188,3062935.645 1124.120,-6124833.631 1126.053,12250704.921 1127.985,-24500372.182 1129.918,49001782.025 1131.851,-98002526.389 1133.783,196006090.439 1135.716,-392011143.218 1137.649,784023324.096 1139.581,-1568045610.532 1141.514,3136092258.724 1143.447,-6272183479.788 1145.379,12544367997.236 1147.312,-25088734956.811 1149.245,50177470951.283 1151.177,-100354940864.905 1153.110,200709882767.470 1155.043,-401419764497.280 1156.975,802839530032.220 1158.908,-1605679059026.778 1160.841,3211358119091.216 1162.773,-6422716237144.776 1164.706,12845432475327.227 1166.639,-25690864949616.820 1168.571,51381729900271.281 1170.504,-102763459799504.980 1172.437,205526919600047.340 1174.369,-411053839199057.500 1176.302,822107678399153.370 1178.235,-1644215356797273.000 1180.167,3288430713595579.000 1182.100,-6576861427190119.000 1184.033,13153722854381254.000 1185.965,-26307445708761556.000 1187.898,52614891417524080.000 1189.830,-105229782835047090.000 1191.763,210459565670095580.000 1193.696,-420919131340189180.000 1195.628,841838262680382340.000 1197.561,-1683676525360764400.000 1199.494,3367353050721534000.000 1201.426,-6734706101443080200.000 1203.359,13469412202886148000.000 1205.292,-26938824405772313000.000 1207.224,53877648811544560000.000 1209.157,-107755297623089180000.000 1211.090,215510595246178600000.000 1213.022,-431021190492356540000.000 1214.955,862042380984716230000.000 1216.888,-1724084761969433000000.000 1218.820,3448169523938866500000.000 1220.753,-6896339047877740300000.000 1222.686,13792678095755445000000.000 1224.618,-27585356191510915000000.000 1226.551,55170712383021939000000.000 1228.484,-110341424766043850000000.000 1230.416,220682849532087820000000.000 1232.349,-441365699064175310000000.000 1234.282,882731398128350490000000.000 1236.214,-1765462796256705600000000.000 1238.147,3530925592513418600000000.000 1240.080,-7061851185026828600000000.000 1242.012,14123702370053636000000000.000 1243.945,-28247404740107323000000000.000 1245.878,56494809480214500000000000.000 1247.810,-112989618960429040000000000.000 1249.743,225979237920858480000000000.000 1251.675,-451958475841716760000000000.000 1253.608,903916951683433930000000000.000 1255.541,-1807833903366865100000000000.000 1257.473,3615667806733740700000000000.000 1259.406,-7231335613467491200000000000.000 1261.339,14462671226934980000000000000.000 1263.271,-28925342453870004000000000000.000 1265.204,57850684907739974000000000000.000 1267.137,-115701369815479840000000000000.000 1269.069,231402739630959330000000000000.000 1271.002,-462805479261919230000000000000.000 1272.935,925610958523840140000000000000.000 1274.867,-1851221917047680900000000000000.000 1276.800,3702443834095370100000000000000.000 1278.733,-7404887668190726800000000000000.000 1280.665,14809775336381467000000000000000.000 1282.598,-29619550672762939000000000000000.000 1284.531,59239101345525922000000000000000.000 1286.463,-118478202691051700000000000000000.000 1288.396,236956405382103510000000000000000.000 1290.329,-473912810764206950000000000000000.000 1292.261,947825621528414040000000000000000.000 1294.194,-1895651243056832400000000000000000.000 1296.127,3791302486113662500000000000000000.000 1298.059,-7582604972227331900000000000000000.000 1299.992,15165209944454659000000000000000000.000 1301.925,-30330419888909351000000000000000000.000 1303.857,60660839777818720000000000000000000.000 1305.790,-121321679555637350000000000000000000.000 1307.723,242643359111274840000000000000000000.000 1309.655,-485286718222550420000000000000000000.000 1311.588,970573436445102170000000000000000000.000 1313.520,-1941146872890204300000000000000000000.000 1315.453,3882293745780410500000000000000000000.000 1317.386,-7764587491560819700000000000000000000.000 1319.318,15529174983121635000000000000000000000.000 1321.251,-31058349966243312000000000000000000000.000 1323.184,62116699932486605000000000000000000000.000 1325.116,-124233399864973150000000000000000000000.000 1327.049,248466799729946650000000000000000000000.000 1328.982,-496933599459893600000000000000000000000.000 1330.914,993867198919786890000000000000000000000.000 1332.847,-1987734397839574400000000000000000000000.000 1334.780,3975468795679151200000000000000000000000.000 1336.712,-7950937591358306000000000000000000000000.000 1338.645,15901875182716619000000000000000000000000.000 1340.578,-31803750365433258000000000000000000000000.000 1342.510,63607500730866516000000000000000000000000.000 1344.443,-127215001461733030000000000000000000000000.000 1346.376,254430002923466060000000000000000000000000.000 1348.308,-508860005846932440000000000000000000000000.000 1350.241,1017720011693865000000000000000000000000000.000 1352.174,-2035440023387731000000000000000000000000000.000 1354.106,1017720011693865600000000000000000000000000.000 "/>
<g>
</g>
</g>
<g id="ID000006" clip-path="url(#ID000001)" >
      <polyline fill="none" stroke="#000000" stroke-width="0.5pt" stroke-dasharray="none" points="677.677,684.188 677.677,57.656 "/>
<g>
</g>
</g>
<g id="ID000007" clip-path="url(#ID000001)" >
      <polyline fill="none" stroke="#000000" stroke-width="0.5pt" stroke-dasharray="none" points="791.703,684.188 791.703,57.656 "/>
<g>
</g>
</g>
<g id="ID000008" clip-path="url(#ID000001)" >
      <polyline fill="none" stroke="#d85218" stroke-width="0.5pt" stroke-dasharray="none" points="196.445,370.922 198.378,370.922 200.310,370.922 202.243,370.922 204.176,370.922 206.108,370.923 208.041,370.924 209.974,370.926 211.906,370.930 213.839,370.936 215.772,370.947 217.704,370.966 219.637,370.998 221.570,371.049 223.502,371.130 225.435,371.257 227.368,371.451 229.300,371.740 231.233,372.161 233.166,372.761 235.098,373.596 237.031,374.734 238.964,376.246 240.896,378.210 242.829,380.697 244.762,383.771 246.694,387.473 248.627,391.815 250.560,396.766 252.492,402.250 254.425,408.136 256.358,414.241 258.290,420.338 260.223,426.162 262.155,431.434 264.088,435.880 266.021,439.254 267.953,441.362 269.886,442.079 271.819,441.362 273.751,439.254 275.684,435.880 277.617,431.434 279.549,426.162 281.482,420.338 283.415,414.241 285.347,408.136 287.280,402.250 289.213,396.766 291.145,391.815 293.078,387.473 295.011,383.771 296.943,380.697 298.876,378.210 300.809,376.246 302.741,374.734 304.674,373.596 306.607,372.761 308.539,372.161 310.472,371.740 312.405,371.451 314.337,371.257 316.270,371.130 318.202,371.049 320.135,370.998 322.068,370.966 324.000,370.947 325.933,370.936 327.866,370.930 329.798,370.926 331.731,370.924 333.664,370.923 335.596,370.923 337.529,370.922 339.462,370.922 341.394,370.922 343.327,370.922 345.260,370.922 347.192,370.922 349.125,370.922 351.058,370.922 352.990,370.922 354.923,370.922 356.856,370.922 358.788,370.922 360.721,370.922 362.654,370.922 364.586,370.922 366.519,370.922 368.452,370.922 370.384,370.922 372.317,370.922 374.250,370.922 376.182,370.922 378.115,370.922 380.048,370.922 381.980,370.922 383.913,370.922 385.845,370.922 387.778,370.922 389.711,370.922 391.643,370.922 393.576,370.922 395.509,370.922 397.441,370.922 399.374,370.922 401.307,370.922 403.239,370.922 405.172,370.922 407.105,370.922 409.037,370.922 410.970,370.922 412.903,370.922 414.835,370.922 416.768,370.922 418.701,370.922 420.633,370.922 422.566,370.922 424.499,370.922 426.431,370.922 428.364,370.922 430.297,370.922 432.229,370.922 434.162,370.922 436.095,370.922 438.027,370.922 439.960,370.922 441.892,370.922 443.825,370.922 445.758,370.922 447.690,370.922 449.623,370.922 451.556,370.922 453.488,370.922 455.421,370.922 457.354,370.922 459.286,370.922 461.219,370.922 463.152,370.922 465.084,370.922 467.017,370.922 468.950,370.922 470.882,370.922 472.815,370.922 474.748,370.922 476.680,370.922 478.613,370.922 480.546,370.922 482.478,370.922 484.411,370.922 486.344,370.922 488.276,370.922 490.209,370.922 492.142,370.922 494.074,370.922 496.007,370.922 497.940,370.922 499.872,370.922 501.805,370.922 503.738,370.921 505.670,370.921 507.603,370.920 509.535,370.919 511.468,370.917 513.401,370.913 515.333,370.908 517.266,370.900 519.199,370.887 521.131,370.868 523.064,370.839 524.997,370.795 526.929,370.732 528.862,370.641 530.795,370.512 532.727,370.330 534.660,370.079 536.593,369.735 538.525,369.274 540.458,368.664 542.391,367.868 544.323,366.847 546.256,365.559 548.189,363.960 550.121,362.011 552.054,359.677 553.987,356.934 555.919,353.777 557.852,350.219 559.785,346.299 561.717,342.086 563.650,337.681 565.582,333.215 567.515,328.847 569.448,324.756 571.380,321.133 573.313,318.165 575.246,316.025 577.178,314.855 579.111,314.751 581.044,315.753 582.976,317.840 584.909,320.924 586.842,324.862 588.774,329.460 590.707,334.492 592.640,339.717 594.572,344.901 596.505,349.834 598.438,354.344 600.370,358.309 602.303,361.662 604.236,364.383 606.168,366.501 608.101,368.077 610.034,369.193 611.966,369.941 613.899,370.412 615.832,370.686 617.764,370.832 619.697,370.899 621.630,370.924 623.562,370.929 625.495,370.927 627.428,370.924 629.360,370.922 631.293,370.921 633.225,370.921 635.158,370.922 637.091,370.922 639.023,370.922 640.956,370.922 642.889,370.922 644.821,370.922 646.754,370.922 648.687,370.922 650.619,370.922 652.552,370.922 654.485,370.922 656.417,370.922 658.350,370.922 660.283,370.922 662.215,370.922 664.148,370.922 666.081,370.922 668.013,370.922 669.946,370.922 671.879,370.922 673.811,370.922 675.744,370.922 677.677,370.922 679.609,370.922 681.542,370.922 683.475,370.922 685.407,370.922 687.340,370.922 689.273,370.922 691.205,370.922 693.138,370.922 695.070,370.922 697.003,370.922 698.936,370.922 700.868,370.922 702.801,370.922 704.734,370.922 706.666,370.922 708.599,370.922 710.532,370.922 712.464,370.922 714.397,370.922 716.330,370.922 718.262,370.922 720.195,370.922 722.128,370.922 724.060,370.922 725.993,370.922 727.926,370.922 729.858,370.921 731.791,370.920 733.724,370.919 735.656,370.919 737.589,370.921 739.522,370.925 741.454,370.932 743.387,370.941 745.320,370.952 747.252,370.961 749.185,370.963 751.117,370.948 753.050,370.905 754.983,370.818 756.915,370.668 758.848,370.434 760.781,370.095 762.713,369.628 764.646,369.011 766.579,368.224 768.511,367.248 770.444,366.069 772.377,364.672 774.309,363.048 776.242,361.197 778.175,359.131 780.107,356.885 782.040,354.526 783.973,352.160 785.905,349.936 787.838,348.031 789.771,346.630 791.703,345.887 793.636,345.887 795.569,345.887 797.501,345.887 799.434,345.887 801.367,345.887 803.299,345.887 805.232,345.887 807.165,345.887 809.097,345.887 811.030,345.887 812.962,345.887 814.895,345.887 816.828,345.887 818.760,345.887 820.693,345.887 822.626,345.887 824.558,345.887 826.491,345.887 828.424,345.887 830.356,345.887 832.289,345.887 834.222,345.887 836.154,345.887 838.087,345.887 840.020,345.887 841.952,345.887 843.885,345.887 845.818,345.887 847.750,345.887 849.683,345.887 851.616,345.887 853.548,345.887 855.481,345.887 857.414,345.887 859.346,345.887 861.279,345.887 863.212,345.887 865.144,345.887 867.077,345.887 869.010,345.887 870.942,345.887 872.875,345.887 874.808,345.887 876.740,345.887 878.673,345.887 880.605,345.887 882.538,345.887 884.471,345.887 886.403,345.887 888.336,345.887 890.269,345.887 892.201,345.887 894.134,345.887 896.067,345.887 897.999,345.887 899.932,345.887 901.865,345.887 903.797,345.887 905.730,345.887 907.663,345.887 909.595,345.887 911.528,345.887 913.461,345.887 915.393,345.887 917.326,345.887 919.259,345.887 921.191,345.887 923.124,345.887 925.057,345.887 926.989,345.887 928.922,345.887 930.855,345.887 932.787,345.887 934.720,345.887 936.653,345.887 938.585,345.887 940.518,345.887 942.450,345.887 944.383,345.887 946.316,345.887 948.248,345.887 950.181,345.887 952.114,345.887 954.046,345.887 955.979,345.887 957.912,345.887 959.844,345.887 961.777,345.887 963.710,345.887 965.642,345.887 967.575,345.887 969.508,345.887 971.440,345.887 973.373,345.887 975.306,345.888 977.238,345.889 979.171,345.891 981.104,345.893 983.036,345.898 984.969,345.905 986.902,345.917 988.834,345.936 990.767,345.964 992.700,346.007 994.632,346.072 996.565,346.167 998.497,346.303 1000.430,346.497 1002.363,346.768 1004.295,347.138 1006.228,347.637 1008.161,348.296 1010.093,349.151 1012.026,350.238 1013.959,351.594 1015.891,353.250 1017.824,355.229 1019.757,357.545 1021.689,360.189 1023.622,363.135 1025.555,366.331 1027.487,369.696 1029.420,373.127 1031.353,376.496 1033.285,379.659 1035.218,382.464 1037.151,384.765 1039.083,386.428 1041.016,387.350 1042.949,387.464 1044.881,386.750 1046.814,385.236 1048.747,382.997 1050.679,380.150 1052.612,376.843 1054.545,373.244 1056.477,369.524 1058.410,365.842 1060.343,362.342 1062.275,359.128 1064.208,356.287 1066.140,353.839 1068.073,351.833 1070.006,350.172 1071.938,348.976 1073.871,347.885 1075.804,347.463 1077.736,346.424 1079.669,347.183 1081.602,344.771 1083.534,349.010 1085.467,340.161 1087.400,357.633 1089.332,322.555 1091.265,392.635 1093.198,252.432 1095.130,532.816 1097.063,-27.963 1098.996,1093.590 1100.928,-1149.518 1102.861,3336.697 1104.794,-5635.734 1106.726,12309.128 1108.659,-23580.596 1110.592,48198.852 1112.524,-95360.043 1114.457,191757.747 1116.390,-382477.833 1118.322,765993.326 1120.255,-1530948.993 1122.188,3062935.645 1124.120,-6124833.631 1126.053,12250704.921 1127.985,-24500372.182 1129.918,49001782.025 1131.851,-98002526.389 1133.783,196006090.439 1135.716,-392011143.218 1137.649,784023324.096 1139.581,-1568045610.532 1141.514,3136092258.724 1143.447,-6272183479.788 1145.379,12544367997.236 1147.312,-25088734956.811 1149.245,50177470951.283 1151.177,-100354940864.905 1153.110,200709882767.470 1155.043,-401419764497.280 1156.975,802839530032.220 1158.908,-1605679059026.778 1160.841,3211358119091.216 1162.773,-6422716237144.776 1164.706,12845432475327.227 1166.639,-25690864949616.820 1168.571,51381729900271.281 1170.504,-102763459799504.980 1172.437,205526919600047.340 1174.369,-411053839199057.500 1176.302,822107678399153.370 1178.235,-1644215356797273.000 1180.167,3288430713595579.000 1182.100,-6576861427190119.000 1184.033,13153722854381254.000 1185.965,-26307445708761556.000 1187.898,52614891417524080.000 1189.830,-105229782835047090.000 1191.763,210459565670095580.000 1193.696,-420919131340189180.000 1195.628,841838262680382340.000 1197.561,-1683676525360764400.000 1199.494,3367353050721534000.000 1201.426,-6734706101443080200.000 1203.359,13469412202886148000.000 1205.292,-26938824405772313000.000 1207.224,53877648811544560000.000 1209.157,-107755297623089180000.000 1211.090,215510595246178600000.000 1213.022,-431021190492356540000.000 1214.955,862042380984716230000.000 1216.888,-1724084761969433000000.000 1218.820,3448169523938866500000.000 1220.753,-6896339047877740300000.000 1222.686,13792678095755445000000.000 1224.618,-27585356191510915000000.000 1226.551,55170712383021939000000.000 1228.484,-110341424766043850000000.000 1230.416,220682849532087820000000.000 1232.349,-441365699064175310000000.000 1234.282,882731398128350490000000.000 1236.214,-1765462796256705600000000.000 1238.147,3530925592513418600000000.000 1240.080,-7061851185026828600000000.000 1242.012,14123702370053636000000000.000 1243.945,-28247404740107323000000000.000 1245.878,56494809480214500000000000.000 1247.810,-112989618960429040000000000.000 1249.743,225979237920858480000000000.000 1251.675,-451958475841716760000000000.000 1253.608,903916951683433930000000000.000 1255.541,-1807833903366865100000000000.000 1257.473,3615667806733740700000000000.000 1259.406,-7231335613467491200000000000.000 1261.339,14462671226934980000000000000.000 1263.271,-28925342453870004000000000000.000 1265.204,57850684907739974000000000000.000 1267.137,-115701369815479840000000000000.000 1269.069,231402739630959330000000000000.000 1271.002,-462805479261919230000000000000.000 1272.935,925610958523840140000000000000.000 1274.867,-1851221917047680900000000000000.000 1276.800,3702443834095370100000000000000.000 1278.733,-7404887668190726800000000000000.000 1280.665,14809775336381467000000000000000.000 1282.598,-29619550672762939000000000000000.000 1284.531,59239101345525922000000000000000.000 1286.463,-118478202691051700000000000000000.000 1288.396,236956405382103510000000000000000.000 1290.329,-473912810764206950000000000000000.000 1292.261,947825621528414040000000000000000.000 1294.194,-1895651243056832400000000000000000.000 1296.127,3791302486113662500000000000000000.000 1298.059,-7582604972227331900000000000000000.000 1299.992,15165209944454659000000000000000000.000 1301.925,-30330419888909351000000000000000000.000 1303.857,60660839777818720000000000000000000.000 1305.790,-121321679555637350000000000000000000.000 1307.723,242643359111274840000000000000000000.000 1309.655,-485286718222550420000000000000000000.000 1311.588,970573436445102170000000000000000000.000 1313.520,-1941146872890204300000000000000000000.000 1315.453,3882293745780410500000000000000000000.000 1317.386,-7764587491560819700000000000000000000.000 1319.318,15529174983121635000000000000000000000.000 1321.251,-31058349966243312000000000000000000000.000 1323.184,62116699932486605000000000000000000000.000 1325.116,-124233399864973150000000000000000000000.000 1327.049,248466799729946650000000000000000000000.000 1328.982,-496933599459893600000000000000000000000.000 1330.914,993867198919786890000000000000000000000.000 1332.847,-1987734397839574400000000000000000000000.000 1334.780,3975468795679151200000000000000000000000.000 1336.712,-7950937591358306000000000000000000000000.000 1338.645,15901875182716619000000000000000000000000.000 1340.578,-31803750365433258000000000000000000000000.000 1342.510,63607500730866516000000000000000000000000.000 1344.443,-127215001461733030000000000000000000000000.000 1346.376,254430002923466060000000000000000000000000.000 1348.308,-508860005846932440000000000000000000000000.000 1350.241,1017720011693865000000000000000000000000000.000 1352.174,-2035440023387731000000000000000000000000000.000 1354.106,1017720011693865600000000000000000000000000.000 "/>
<g>
</g>
</g>
    </g>
    <g>
      <polyline fill="none" stroke="#262626" stroke-width="0.5pt" stroke-dasharray="none" points="194.513,684.188 194.513,672.592 "/>
      <polyline fill="none" stroke="#262626" stroke-width="0.5pt" stroke-dasharray="none" points="387.778,684.188 387.778,672.592 "/>
      <polyline fill="none" stroke="#262626" stroke-width="0.5pt" stroke-dasharray="none" points="581.044,684.188 581.044,672.592 "/>
      <polyline fill="none" stroke="#262626" stroke-width="0.5pt" stroke-dasharray="none" points="774.309,684.188 774.309,672.592 "/>
      <polyline fill="none" stroke="#262626" stroke-width="0.5pt" stroke-dasharray="none" points="967.575,684.188 967.575,672.592 "/>
      <polyline fill="none" stroke="#262626" stroke-width="0.5pt" stroke-dasharray="none" points="1160.841,684.188 1160.841,672.592 "/>
      <polyline fill="none" stroke="#262626" stroke-width="0.5pt" stroke-dasharray="none" points="1354.106,684.188 1354.106,672.592 "/>
      <polyline fill="none" stroke="#262626" stroke-width="0.5pt" stroke-dasharray="none" points="194.513,684.188 1354.106,684.188 "/>
  <g transform="translate(194.513,707.781)">
    <g transform="rotate(-0.0)">
      <text x="0.000" y="0.000" font-family="times new roman" text-anchor="middle" font-size="9pt" fill="#262626" >0</text>
    </g>
  </g>
  <g transform="translate(387.778,707.781)">
    <g transform="rotate(-0.0)">
      <text x="0.000" y="0.000" font-family="times new roman" text-anchor="middle" font-size="9pt" fill="#262626" >100</text>
    </g>
  </g>
  <g transform="translate(581.044,707.781)">
    <g transform="rotate(-0.0)">
      <text x="0.000" y="0.000" font-family="times new roman" text-anchor="middle" font-size="9pt" fill="#262626" >200</text>
    </g>
  </g>
  <g transform="translate(774.309,707.781)">
    <g transform="rotate(-0.0)">
      <text x="0.000" y="0.000" font-family="times new roman" text-anchor="middle" font-size="9pt" fill="#262626" >300</text>
    </g>
  </g>
  <g transform="translate(967.575,707.781)">
    <g transform="rotate(-0.0)">
      <text x="0.000" y="0.000" font-family="times new roman" text-anchor="middle" font-size="9pt" fill="#262626" >400</text>
    </g>
  </g>
  <g transform="translate(1160.841,707.781)">
    <g transform="rotate(-0.0)">
      <text x="0.000" y="0.000" font-family="times new roman" text-anchor="middle" font-size="9pt" fill="#262626" >500</text>
    </g>
  </g>
  <g transform="translate(1354.106,707.781)">
    <g transform="rotate(-0.0)">
      <text x="0.000" y="0.000" font-family="times new roman" text-anchor="middle" font-size="9pt" fill="#262626" >600</text>
    </g>
  </g>
      <polyline fill="none" stroke="#262626" stroke-width="0.5pt" stroke-dasharray="none" points="194.513,684.188 206.108,684.188 "/>
      <polyline fill="none" stroke="#262626" stroke-width="0.5pt" stroke-dasharray="none" points="194.513,621.534 206.108,621.534 "/>
      <polyline fill="none" stroke="#262626" stroke-width="0.5pt" stroke-dasharray="none" points="194.513,558.881 206.108,558.881 "/>
      <polyline fill="none" stroke="#262626" stroke-width="0.5pt" stroke-dasharray="none" points="194.513,496.228 206.108,496.228 "/>
      <polyline fill="none" stroke="#262626" stroke-width="0.5pt" stroke-dasharray="none" points="194.513,433.575 206.108,433.575 "/>
      <polyline fill="none" stroke="#262626" stroke-width="0.5pt" stroke-dasharray="none" points="194.513,370.922 206.108,370.922 "/>
      <polyline fill="none" stroke="#262626" stroke-width="0.5pt" stroke-dasharray="none" points="194.513,308.269 206.108,308.269 "/>
      <polyline fill="none" stroke="#262626" stroke-width="0.5pt" stroke-dasharray="none" points="194.513,245.616 206.108,245.616 "/>
      <polyline fill="none" stroke="#262626" stroke-width="0.5pt" stroke-dasharray="none" points="194.513,182.962 206.108,182.962 "/>
      <polyline fill="none" stroke="#262626" stroke-width="0.5pt" stroke-dasharray="none" points="194.513,120.309 206.108,120.309 "/>
      <polyline fill="none" stroke="#262626" stroke-width="0.5pt" stroke-dasharray="none" points="194.513,57.656 206.108,57.656 "/>
      <polyline fill="none" stroke="#262626" stroke-width="0.5pt" stroke-dasharray="none" points="194.513,684.188 194.513,57.656 "/>
  <g transform="translate(171.321,688.406)">
    <g transform="rotate(-0.0)">
      <text x="0.000" y="0.000" font-family="times new roman" text-anchor="end" font-size="9pt" fill="#262626" >-1</text>
    </g>
  </g>
  <g transform="translate(171.321,625.753)">
    <g transform="rotate(-0.0)">
      <text x="0.000" y="0.000" font-family="times new roman" text-anchor="end" font-size="9pt" fill="#262626" >-0.8</text>
    </g>
  </g>
  <g transform="translate(171.321,563.100)">
    <g transform="rotate(-0.0)">
      <text x="0.000" y="0.000" font-family="times new roman" text-anchor="end" font-size="9pt" fill="#262626" >-0.6</text>
    </g>
  </g>
  <g transform="translate(171.321,500.447)">
    <g transform="rotate(-0.0)">
      <text x="0.000" y="0.000" font-family="times new roman" text-anchor="end" font-size="9pt" fill="#262626" >-0.4</text>
    </g>
  </g>
  <g transform="translate(171.321,437.794)">
    <g transform="rotate(-0.0)">
      <text x="0.000" y="0.000" font-family="times new roman" text-anchor="end" font-size="9pt" fill="#262626" >-0.2</text>
    </g>
  </g>
  <g transform="translate(171.321,375.141)">
    <g transform="rotate(-0.0)">
      <text x="0.000" y="0.000" font-family="times new roman" text-anchor="end" font-size="9pt" fill="#262626" >0</text>
    </g>
  </g>
  <g transform="translate(171.321,312.487)">
    <g transform="rotate(-0.0)">
      <text x="0.000" y="0.000" font-family="times new roman" text-anchor="end" font-size="9pt" fill="#262626" >0.2</text>
    </g>
  </g>
  <g transform="translate(171.321,249.834)">
    <g transform="rotate(-0.0)">
      <text x="0.000" y="0.000" font-family="times new roman" text-anchor="end" font-size="9pt" fill="#262626" >0.4</text>
    </g>
  </g>
  <g transform="translate(171.321,187.181)">
    <g transform="rotate(-0.0)">
      <text x="0.000" y="0.000" font-family="times new roman" text-anchor="end" font-size="9pt" fill="#262626" >0.6</text>
    </g>
  </g>
  <g transform="translate(171.321,124.528)">
    <g transform="rotate(-0.0)">
      <text x="0.000" y="0.000" font-family="times new roman" text-anchor="end" font-size="9pt" fill="#262626" >0.8</text>
    </g>
  </g>
  <g transform="translate(171.321,61.875)">
    <g transform="rotate(-0.0)">
      <text x="0.000" y="0.000" font-family="times new roman" text-anchor="end" font-size="9pt" fill="#262626" >1</text>
    </g>
  </g>
      <polyline fill="none" stroke="#262626" stroke-width="0.5pt" stroke-dasharray="none" points="194.513,684.188 194.513,677.922 "/>
      <polyline fill="none" stroke="#262626" stroke-width="0.5pt" stroke-dasharray="none" points="194.513,684.188 194.513,677.922 "/>
      <polyline fill="none" stroke="#262626" stroke-width="0.5pt" stroke-dasharray="none" points="194.513,684.187 194.513,677.922 "/>
      <polyline fill="none" stroke="#262626" stroke-width="0.5pt" stroke-dasharray="none" points="194.513,684.188 194.513,684.187 "/>
    </g>
  </g>
  </g>
</svg>
