<?xml version="1.0" encoding="utf-8" standalone="no"?><!DOCTYPE svg PUBLIC "-//W3C//DTD SVG 1.1//EN" "http://www.w3.org/Graphics/SVG/1.1/DTD/svg11.dtd">
<svg preserveAspectRatio="xMinYMin meet" width="100%" height="100%" viewBox="0 0 1496.250 768.750"  version="1.1" xmlns="http://www.w3.org/2000/svg" xmlns:xlink="http://www.w3.org/1999/xlink">
  <desc>Matlab Figure Converted by PLOT2SVG written by Juerg Schwizer</desc>
  <g id="topgroup">
  <rect x="0" y="0" width="1496.250" height="768.750" fill="#ffffff" stroke="none" />
  <g id ="ID000000">
  <clipPath id="ID000001">
    <rect x="194.513" y="57.656" width="1159.594" height="626.531"/>
  </clipPath>
      <polygon fill="#ffffff" fill-opacity="1.00" stroke="none" stroke-width="0.5pt" stroke-opacity="1.00" stroke-dasharray="none" points="194.513,684.188 1354.106,684.188 1354.106,57.656 194.513,57.656 "/>
      <polygon fill="#ffffff" fill-opacity="1.00" stroke="none" stroke-width="0.5pt" stroke-opacity="1.00" stroke-dasharray="none" points="194.513,57.656 1354.106,57.656 1354.106,57.656 194.513,57.656 "/>
      <polygon fill="#ffffff" fill-opacity="1.00" stroke="none" stroke-width="0.5pt" stroke-opacity="1.00" stroke-dasharray="none" points="194.513,684.188 194.513,684.187 194.513,57.656 194.513,57.656 "/>
    <g>
<g id="ID000002" >
</g>
<g id="ID000003" >
</g>
<g id="ID000004" >
  <g transform="translate(774.310,52.503)">
    <g transform="rotate(-0.0)">
      <text x="0.000" y="0.000" font-family="times new roman" text-anchor="middle" font-size="10pt" font-weight="bold" fill="#000000" >E-field at Time Step 320</text>
    </g>
  </g>
</g>
<g id="ID000005" clip-path="url(#ID000001)" >
      <polyline fill="none" stroke="#000000" stroke-width="1.4pt" stroke-dasharray="none" points="196.445,370.924 198.378,370.923 200.310,370.922 202.243,370.922 204.176,370.922 206.108,370.922 208.041,370.922 209.974,370.922 211.906,370.922 213.839,370.922 215.772,370.922 217.704,370.922 219.637,370.922 221.570,370.922 223.502,370.922 225.435,370.922 227.368,370.922 229.300,370.922 231.233,370.922 233.166,370.922 235.098,370.922 237.031,370.922 238.964,370.922 240.896,370.922 242.829,370.922 244.762,370.922 246.694,370.922 248.627,370.922 250.560,370.922 252.492,370.922 254.425,370.922 256.358,370.922 258.290,370.922 260.223,370.922 262.155,370.922 264.088,370.922 266.021,370.922 267.953,370.922 269.886,370.922 271.819,370.922 273.751,370.922 275.684,370.922 277.617,370.922 279.549,370.922 281.482,370.922 283.415,370.922 285.347,370.922 287.280,370.922 289.213,370.922 291.145,370.922 293.078,370.922 295.011,370.922 296.943,370.922 298.876,370.922 300.809,370.922 302.741,370.922 304.674,370.922 306.607,370.922 308.539,370.922 310.472,370.922 312.405,370.922 314.337,370.922 316.270,370.922 318.202,370.922 320.135,370.922 322.068,370.922 324.000,370.922 325.933,370.922 327.866,370.922 329.798,370.922 331.731,370.922 333.664,370.922 335.596,370.922 337.529,370.922 339.462,370.922 341.394,370.922 343.327,370.922 345.260,370.922 347.192,370.922 349.125,370.922 351.058,370.922 352.990,370.922 354.923,370.922 356.856,370.922 358.788,370.922 360.721,370.922 362.654,370.922 364.586,370.922 366.519,370.922 368.452,370.921 370.384,370.921 372.317,370.920 374.250,370.919 376.182,370.917 378.115,370.913 380.048,370.908 381.980,370.900 383.913,370.887 385.845,370.868 387.778,370.839 389.711,370.795 391.643,370.732 393.576,370.641 395.509,370.512 397.441,370.330 399.374,370.079 401.307,369.735 403.239,369.274 405.172,368.664 407.105,367.868 409.037,366.847 410.970,365.559 412.903,363.960 414.835,362.011 416.768,359.677 418.701,356.934 420.633,353.777 422.566,350.219 424.499,346.299 426.431,342.086 428.364,337.681 430.297,333.215 432.229,328.847 434.162,324.756 436.095,321.133 438.027,318.165 439.960,316.025 441.892,314.855 443.825,314.751 445.758,315.753 447.690,317.840 449.623,320.924 451.556,324.862 453.488,329.460 455.421,334.492 457.354,339.717 459.286,344.901 461.219,349.834 463.152,354.344 465.084,358.309 467.017,361.662 468.950,364.383 470.882,366.501 472.815,368.077 474.748,369.193 476.680,369.941 478.613,370.412 480.546,370.686 482.478,370.832 484.411,370.899 486.344,370.924 488.276,370.929 490.209,370.927 492.142,370.924 494.074,370.922 496.007,370.921 497.940,370.921 499.872,370.922 501.805,370.922 503.738,370.922 505.670,370.922 507.603,370.922 509.535,370.922 511.468,370.922 513.401,370.922 515.333,370.922 517.266,370.922 519.199,370.922 521.131,370.922 523.064,370.922 524.997,370.922 526.929,370.922 528.862,370.922 530.795,370.922 532.727,370.922 534.660,370.922 536.593,370.922 538.525,370.922 540.458,370.922 542.391,370.922 544.323,370.922 546.256,370.922 548.189,370.922 550.121,370.922 552.054,370.922 553.987,370.922 555.919,370.922 557.852,370.922 559.785,370.922 561.717,370.922 563.650,370.922 565.582,370.922 567.515,370.922 569.448,370.922 571.380,370.922 573.313,370.922 575.246,370.922 577.178,370.922 579.111,370.922 581.044,370.922 582.976,370.922 584.909,370.922 586.842,370.922 588.774,370.922 590.707,370.922 592.640,370.922 594.572,370.922 596.505,370.922 598.438,370.922 600.370,370.922 602.303,370.922 604.236,370.922 606.168,370.922 608.101,370.922 610.034,370.922 611.966,370.922 613.899,370.922 615.832,370.922 617.764,370.922 619.697,370.922 621.630,370.922 623.562,370.922 625.495,370.922 627.428,370.922 629.360,370.922 631.293,370.922 633.225,370.922 635.158,370.922 637.091,370.922 639.023,370.922 640.956,370.922 642.889,370.922 644.821,370.922 646.754,370.922 648.687,370.922 650.619,370.922 652.552,370.922 654.485,370.922 656.417,370.922 658.350,370.922 660.283,370.922 662.215,370.922 664.148,370.922 666.081,370.922 668.013,370.922 669.946,370.922 671.879,370.922 673.811,370.922 675.744,370.921 677.677,370.921 679.609,370.920 681.542,370.918 683.475,370.915 685.407,370.908 687.340,370.895 689.273,370.870 691.205,370.828 693.138,370.756 695.070,370.638 697.003,370.453 698.936,370.173 700.868,369.770 702.801,369.216 704.734,368.493 706.666,367.604 708.599,366.582 710.532,365.499 712.464,364.466 714.397,363.624 716.330,363.116 718.262,363.060 720.195,363.509 722.128,364.430 724.060,365.695 725.993,367.111 727.926,368.467 729.858,369.585 731.791,370.368 733.724,370.813 735.656,370.992 737.589,371.011 739.522,370.970 741.454,370.930 743.387,370.912 745.320,370.913 747.252,370.920 749.185,370.923 751.117,370.923 753.050,370.922 754.983,370.921 756.915,370.922 758.848,370.922 760.781,370.922 762.713,370.922 764.646,370.922 766.579,370.922 768.511,370.922 770.444,370.922 772.377,370.922 774.309,370.922 776.242,370.922 778.175,370.922 780.107,370.922 782.040,370.922 783.973,370.922 785.905,370.922 787.838,370.922 789.771,370.922 791.703,370.922 793.636,370.922 795.569,370.922 797.501,370.922 799.434,370.922 801.367,370.922 803.299,370.922 805.232,370.922 807.165,370.922 809.097,370.922 811.030,370.922 812.962,370.922 814.895,370.922 816.828,370.922 818.760,370.922 820.693,370.922 822.626,370.922 824.558,370.922 826.491,370.922 828.424,370.922 830.356,370.922 832.289,370.922 834.222,370.922 836.154,370.922 838.087,370.923 840.020,370.923 841.952,370.924 843.885,370.926 845.818,370.929 847.750,370.933 849.683,370.941 851.616,370.952 853.548,370.971 855.481,370.999 857.414,371.043 859.346,371.107 861.279,371.202 863.212,371.338 865.144,371.532 867.077,371.803 869.010,372.174 870.942,372.672 872.875,373.332 874.808,374.186 876.740,375.273 878.673,376.629 880.605,378.285 882.538,380.265 884.471,382.580 886.403,385.224 888.336,388.170 890.269,391.366 892.201,394.731 894.134,398.162 896.067,401.531 897.999,404.694 899.932,407.499 901.865,409.800 903.797,411.463 905.730,412.385 907.663,412.500 909.595,411.786 911.528,410.271 913.461,408.032 915.393,405.185 917.326,401.879 919.259,398.279 921.191,394.559 923.124,390.877 925.057,387.377 926.989,384.164 928.922,381.322 930.855,378.875 932.787,376.868 934.720,375.208 936.653,374.011 938.585,372.920 940.518,372.498 942.450,371.459 944.383,372.218 946.316,369.806 948.248,374.045 950.181,365.196 952.114,382.668 954.046,347.590 955.979,417.671 957.912,277.468 959.844,557.852 961.777,-2.928 963.710,1118.625 965.642,-1124.483 967.575,3361.732 969.508,-5610.699 971.440,12334.163 973.373,-23555.561 975.306,48223.887 977.238,-95335.008 979.171,191782.782 981.104,-382452.798 983.036,766018.362 984.969,-1530923.957 986.902,3062960.681 988.834,-6124808.595 990.767,12250729.956 992.700,-24500347.147 994.632,49001807.060 996.565,-98002501.354 998.497,196006115.474 1000.430,-392011118.183 1002.363,784023349.131 1004.295,-1568045585.497 1006.228,3136092283.759 1008.161,-6272183454.752 1010.093,12544368022.270 1012.026,-25088734931.775 1013.959,50177470976.316 1015.891,-100354940839.866 1017.824,200709882792.498 1019.757,-401419764472.230 1021.689,802839530057.227 1023.622,-1605679059001.682 1025.555,3211358119116.131 1027.487,-6422716237119.505 1029.420,12845432475351.811 1031.353,-25690864949590.852 1033.285,51381729900294.391 1035.218,-102763459799476.230 1037.151,205526919600065.000 1039.083,-411053839199017.250 1041.016,822107678399148.500 1042.949,-1644215356797185.500 1044.881,3288430713595477.500 1046.814,-6576861427189835.000 1048.747,13153722854380786.000 1050.679,-26307445708760568.000 1052.612,52614891417522160.000 1054.545,-105229782835043390.000 1056.477,210459565670087780.000 1058.410,-420919131340173060.000 1060.343,841838262680350340.000 1062.275,-1683676525360706000.000 1064.208,3367353050721411100.000 1066.140,-6734706101442836500.000 1068.073,13469412202885675000.000 1070.006,-26938824405771375000.000 1071.938,53877648811542643000.000 1073.871,-107755297623085400000.000 1075.804,215510595246171260000.000 1077.736,-431021190492340940000.000 1079.669,862042380984683860000.000 1081.602,-1724084761969365400000.000 1083.534,3448169523938735900000.000 1085.467,-6896339047877492900000.000 1087.400,13792678095754967000000.000 1089.332,-27585356191509934000000.000 1091.265,55170712383019867000000.000 1093.198,-110341424766039940000000.000 1095.130,220682849532079970000000.000 1097.063,-441365699064158940000000.000 1098.996,882731398128318420000000.000 1100.928,-1765462796256642700000000.000 1102.861,3530925592513294100000000.000 1104.794,-7061851185026564500000000.000 1106.726,14123702370053108000000000.000 1108.659,-28247404740106258000000000.000 1110.592,56494809480212327000000000.000 1112.524,-112989618960424720000000000.000 1114.457,225979237920849890000000000.000 1116.390,-451958475841699580000000000.000 1118.322,903916951683398880000000000.000 1120.255,-1807833903366798300000000000.000 1122.188,3615667806733613100000000000.000 1124.120,-7231335613467220700000000000.000 1126.053,14462671226934455000000000000.000 1127.985,-28925342453868918000000000000.000 1129.918,57850684907737872000000000000.000 1131.851,-115701369815475460000000000000.000 1133.783,231402739630950850000000000000.000 1135.716,-462805479261901710000000000000.000 1137.649,925610958523805940000000000000.000 1139.581,-1851221917047606800000000000000.000 1141.514,3702443834095228300000000000000.000 1143.447,-7404887668190443100000000000000.000 1145.379,14809775336380951000000000000000.000 1147.312,-29619550672761885000000000000000.000 1149.245,59239101345523815000000000000000.000 1151.177,-118478202691047340000000000000000.000 1153.110,236956405382094500000000000000000.000 1155.043,-473912810764189580000000000000000.000 1156.975,947825621528379740000000000000000.000 1158.908,-1895651243056763800000000000000000.000 1160.841,3791302486113529300000000000000000.000 1162.773,-7582604972227055200000000000000000.000 1164.706,15165209944454076000000000000000000.000 1166.639,-30330419888908285000000000000000000.000 1168.571,60660839777816552000000000000000000.000 1170.504,-121321679555633070000000000000000000.000 1172.437,242643359111266580000000000000000000.000 1174.369,-485286718222533520000000000000000000.000 1176.302,970573436445067490000000000000000000.000 1178.235,-1941146872890130600000000000000000000.000 1180.167,3882293745780266400000000000000000000.000 1182.100,-7764587491560539900000000000000000000.000 1184.033,15529174983121066000000000000000000000.000 1185.965,-31058349966242169000000000000000000000.000 1187.898,62116699932484386000000000000000000000.000 1189.830,-124233399864968580000000000000000000000.000 1191.763,248466799729937390000000000000000000000.000 1193.696,-496933599459875540000000000000000000000.000 1195.628,993867198919749110000000000000000000000.000 1197.561,-1987734397839502800000000000000000000000.000 1199.494,3975468795679009100000000000000000000000.000 1201.426,-7950937591358018300000000000000000000000.000 1203.359,15901875182716037000000000000000000000000.000 1205.292,-31803750365432112000000000000000000000000.000 1207.224,63607500730863972000000000000000000000000.000 1209.157,-127215001461727890000000000000000000000000.000 1211.090,254430002923456470000000000000000000000000.000 1213.022,-508860005846913170000000000000000000000000.000 1214.955,1017720011693826300000000000000000000000000.000 1216.888,-2035440023387654500000000000000000000000000.000 1218.820,4070880046775314600000000000000000000000000.000 1220.753,-8141760093550635500000000000000000000000000.000 1222.686,16283520187101273000000000000000000000000000.000 1224.618,-32567040374202492000000000000000000000000000.000 1226.551,65134080748404975000000000000000000000000000.000 1228.484,-130268161496810070000000000000000000000000000.000 1230.416,260536322993620490000000000000000000000000000.000 1232.349,-521072645987241230000000000000000000000000000.000 1234.282,1042145291974482500000000000000000000000000000.000 1236.214,-2084290583948965900000000000000000000000000000.000 1238.147,4168581167897941800000000000000000000000000000.000 1240.080,-8337162335795885000000000000000000000000000000.000 1242.012,16674324671591783000000000000000000000000000000.000 1243.945,-33348649343183565000000000000000000000000000000.000 1245.878,66697298686367232000000000000000000000000000000.000 1247.810,-133394597372734460000000000000000000000000000000.000 1249.743,266789194745468810000000000000000000000000000000.000 1251.675,-533578389490938180000000000000000000000000000000.000 1253.608,1067156778981877000000000000000000000000000000000.000 1255.541,-2134313557963755300000000000000000000000000000000.000 1257.473,4268627115927508000000000000000000000000000000000.000 1259.406,-8537254231855034200000000000000000000000000000000.000 1261.339,17074508463710063000000000000000000000000000000000.000 1263.271,-34149016927420111000000000000000000000000000000000.000 1265.204,68298033854840326000000000000000000000000000000000.000 1267.137,-136596067709680590000000000000000000000000000000000.000 1269.069,273192135419361390000000000000000000000000000000000.000 1271.002,-546384270838723020000000000000000000000000000000000.000 1272.935,1092768541677448000000000000000000000000000000000000.000 1274.867,-2185537083354897100000000000000000000000000000000000.000 1276.800,4371074166709796100000000000000000000000000000000000.000 1278.733,-8742148333419590900000000000000000000000000000000000.000 1280.665,17484296666839198000000000000000000000000000000000000.000 1282.598,-34968593333678417000000000000000000000000000000000000.000 1284.531,69937186667356866000000000000000000000000000000000000.000 1286.463,-139874373334713800000000000000000000000000000000000000.000 1288.396,279748746669427680000000000000000000000000000000000000.000 1290.329,-559497493338854930000000000000000000000000000000000000.000 1292.261,1118994986677711400000000000000000000000000000000000000.000 1294.194,-2237989973355423100000000000000000000000000000000000000.000 1296.127,4475979946710848900000000000000000000000000000000000000.000 1298.059,-8951959893421706000000000000000000000000000000000000000.000 1299.992,17903919786843428000000000000000000000000000000000000000.000 1301.925,-35807839573686879000000000000000000000000000000000000000.000 1303.857,71615679147373801000000000000000000000000000000000000000.000 1305.790,-143231358294747690000000000000000000000000000000000000000.000 1307.723,286462716589495510000000000000000000000000000000000000000.000 1309.655,-572925433178991190000000000000000000000000000000000000000.000 1311.588,1145850866357983800000000000000000000000000000000000000000.000 1313.520,-2291701732715966200000000000000000000000000000000000000000.000 1315.453,4583403465431935100000000000000000000000000000000000000000.000 1317.386,-9166806930863875800000000000000000000000000000000000000000.000 1319.318,18333613861727765000000000000000000000000000000000000000000.000 1321.251,-36667227723455548000000000000000000000000000000000000000000.000 1323.184,73334455446911140000000000000000000000000000000000000000000.000 1325.116,-146668910893822280000000000000000000000000000000000000000000.000 1327.049,293337821787644740000000000000000000000000000000000000000000.000 1328.982,-586675643575289830000000000000000000000000000000000000000000.000 1330.914,1173351287150580600000000000000000000000000000000000000000000.000 1332.847,-2346702574301161800000000000000000000000000000000000000000000.000 1334.780,4693405148602327200000000000000000000000000000000000000000000.000 1336.712,-9386810297204658700000000000000000000000000000000000000000000.000 1338.645,18773620594409317000000000000000000000000000000000000000000000.000 1340.578,-37547241188818658000000000000000000000000000000000000000000000.000 1342.510,75094482377637350000000000000000000000000000000000000000000000.000 1344.443,-150188964755274810000000000000000000000000000000000000000000000.000 1346.376,300377929510549720000000000000000000000000000000000000000000000.000 1348.308,-600755859021099710000000000000000000000000000000000000000000000.000 1350.241,1201511718042199800000000000000000000000000000000000000000000000.000 1352.174,-2403023436084400300000000000000000000000000000000000000000000000.000 1354.106,1201511718042200200000000000000000000000000000000000000000000000.000 "/>
<g>
</g>
</g>
<g id="ID000006" clip-path="url(#ID000001)" >
      <polyline fill="none" stroke="#000000" stroke-width="0.5pt" stroke-dasharray="none" points="677.677,684.188 677.677,57.656 "/>
<g>
</g>
</g>
<g id="ID000007" clip-path="url(#ID000001)" >
      <polyline fill="none" stroke="#000000" stroke-width="0.5pt" stroke-dasharray="none" points="791.703,684.188 791.703,57.656 "/>
<g>
</g>
</g>
<g id="ID000008" clip-path="url(#ID000001)" >
      <polyline fill="none" stroke="#d85218" stroke-width="0.5pt" stroke-dasharray="none" points="196.445,370.924 198.378,370.923 200.310,370.922 202.243,370.922 204.176,370.922 206.108,370.922 208.041,370.922 209.974,370.922 211.906,370.922 213.839,370.922 215.772,370.922 217.704,370.922 219.637,370.922 221.570,370.922 223.502,370.922 225.435,370.922 227.368,370.922 229.300,370.922 231.233,370.922 233.166,370.922 235.098,370.922 237.031,370.922 238.964,370.922 240.896,370.922 242.829,370.922 244.762,370.922 246.694,370.922 248.627,370.922 250.560,370.922 252.492,370.922 254.425,370.922 256.358,370.922 258.290,370.922 260.223,370.922 262.155,370.922 264.088,370.922 266.021,370.922 267.953,370.922 269.886,370.922 271.819,370.922 273.751,370.922 275.684,370.922 277.617,370.922 279.549,370.922 281.482,370.922 283.415,370.922 285.347,370.922 287.280,370.922 289.213,370.922 291.145,370.922 293.078,370.922 295.011,370.922 296.943,370.922 298.876,370.922 300.809,370.922 302.741,370.922 304.674,370.922 306.607,370.922 308.539,370.922 310.472,370.922 312.405,370.922 314.337,370.922 316.270,370.922 318.202,370.922 320.135,370.922 322.068,370.922 324.000,370.922 325.933,370.922 327.866,370.922 329.798,370.922 331.731,370.922 333.664,370.922 335.596,370.922 337.529,370.922 339.462,370.922 341.394,370.922 343.327,370.922 345.260,370.922 347.192,370.922 349.125,370.922 351.058,370.922 352.990,370.922 354.923,370.922 356.856,370.922 358.788,370.922 360.721,370.922 362.654,370.922 364.586,370.922 366.519,370.922 368.452,370.921 370.384,370.921 372.317,370.920 374.250,370.919 376.182,370.917 378.115,370.913 380.048,370.908 381.980,370.900 383.913,370.887 385.845,370.868 387.778,370.839 389.711,370.795 391.643,370.732 393.576,370.641 395.509,370.512 397.441,370.330 399.374,370.079 401.307,369.735 403.239,369.274 405.172,368.664 407.105,367.868 409.037,366.847 410.970,365.559 412.903,363.960 414.835,362.011 416.768,359.677 418.701,356.934 420.633,353.777 422.566,350.219 424.499,346.299 426.431,342.086 428.364,337.681 430.297,333.215 432.229,328.847 434.162,324.756 436.095,321.133 438.027,318.165 439.960,316.025 441.892,314.855 443.825,314.751 445.758,315.753 447.690,317.840 449.623,320.924 451.556,324.862 453.488,329.460 455.421,334.492 457.354,339.717 459.286,344.901 461.219,349.834 463.152,354.344 465.084,358.309 467.017,361.662 468.950,364.383 470.882,366.501 472.815,368.077 474.748,369.193 476.680,369.941 478.613,370.412 480.546,370.686 482.478,370.832 484.411,370.899 486.344,370.924 488.276,370.929 490.209,370.927 492.142,370.924 494.074,370.922 496.007,370.921 497.940,370.921 499.872,370.922 501.805,370.922 503.738,370.922 505.670,370.922 507.603,370.922 509.535,370.922 511.468,370.922 513.401,370.922 515.333,370.922 517.266,370.922 519.199,370.922 521.131,370.922 523.064,370.922 524.997,370.922 526.929,370.922 528.862,370.922 530.795,370.922 532.727,370.922 534.660,370.922 536.593,370.922 538.525,370.922 540.458,370.922 542.391,370.922 544.323,370.922 546.256,370.922 548.189,370.922 550.121,370.922 552.054,370.922 553.987,370.922 555.919,370.922 557.852,370.922 559.785,370.922 561.717,370.922 563.650,370.922 565.582,370.922 567.515,370.922 569.448,370.922 571.380,370.922 573.313,370.922 575.246,370.922 577.178,370.922 579.111,370.922 581.044,370.922 582.976,370.922 584.909,370.922 586.842,370.922 588.774,370.922 590.707,370.922 592.640,370.922 594.572,370.922 596.505,370.922 598.438,370.922 600.370,370.922 602.303,370.922 604.236,370.922 606.168,370.922 608.101,370.922 610.034,370.922 611.966,370.922 613.899,370.922 615.832,370.922 617.764,370.922 619.697,370.922 621.630,370.922 623.562,370.922 625.495,370.922 627.428,370.922 629.360,370.922 631.293,370.922 633.225,370.922 635.158,370.922 637.091,370.922 639.023,370.922 640.956,370.922 642.889,370.922 644.821,370.922 646.754,370.922 648.687,370.922 650.619,370.922 652.552,370.922 654.485,370.922 656.417,370.922 658.350,370.922 660.283,370.922 662.215,370.922 664.148,370.922 666.081,370.922 668.013,370.922 669.946,370.922 671.879,370.922 673.811,370.922 675.744,370.921 677.677,370.921 679.609,370.920 681.542,370.918 683.475,370.915 685.407,370.908 687.340,370.895 689.273,370.870 691.205,370.828 693.138,370.756 695.070,370.638 697.003,370.453 698.936,370.173 700.868,369.770 702.801,369.216 704.734,368.493 706.666,367.604 708.599,366.582 710.532,365.499 712.464,364.466 714.397,363.624 716.330,363.116 718.262,363.060 720.195,363.509 722.128,364.430 724.060,365.695 725.993,367.111 727.926,368.467 729.858,369.585 731.791,370.368 733.724,370.813 735.656,370.992 737.589,371.011 739.522,370.970 741.454,370.930 743.387,370.912 745.320,370.913 747.252,370.920 749.185,370.923 751.117,370.923 753.050,370.922 754.983,370.921 756.915,370.922 758.848,370.922 760.781,370.922 762.713,370.922 764.646,370.922 766.579,370.922 768.511,370.922 770.444,370.922 772.377,370.922 774.309,370.922 776.242,370.922 778.175,370.922 780.107,370.922 782.040,370.922 783.973,370.922 785.905,370.922 787.838,370.922 789.771,370.922 791.703,370.922 793.636,370.922 795.569,370.922 797.501,370.922 799.434,370.922 801.367,370.922 803.299,370.922 805.232,370.922 807.165,370.922 809.097,370.922 811.030,370.922 812.962,370.922 814.895,370.922 816.828,370.922 818.760,370.922 820.693,370.922 822.626,370.922 824.558,370.922 826.491,370.922 828.424,370.922 830.356,370.922 832.289,370.922 834.222,370.922 836.154,370.922 838.087,370.923 840.020,370.923 841.952,370.924 843.885,370.926 845.818,370.929 847.750,370.933 849.683,370.941 851.616,370.952 853.548,370.971 855.481,370.999 857.414,371.043 859.346,371.107 861.279,371.202 863.212,371.338 865.144,371.532 867.077,371.803 869.010,372.174 870.942,372.672 872.875,373.332 874.808,374.186 876.740,375.273 878.673,376.629 880.605,378.285 882.538,380.265 884.471,382.580 886.403,385.224 888.336,388.170 890.269,391.366 892.201,394.731 894.134,398.162 896.067,401.531 897.999,404.694 899.932,407.499 901.865,409.800 903.797,411.463 905.730,412.385 907.663,412.500 909.595,411.786 911.528,410.271 913.461,408.032 915.393,405.185 917.326,401.879 919.259,398.279 921.191,394.559 923.124,390.877 925.057,387.377 926.989,384.164 928.922,381.322 930.855,378.875 932.787,376.868 934.720,375.208 936.653,374.011 938.585,372.920 940.518,372.498 942.450,371.459 944.383,372.218 946.316,369.806 948.248,374.045 950.181,365.196 952.114,382.668 954.046,347.590 955.979,417.671 957.912,277.468 959.844,557.852 961.777,-2.928 963.710,1118.625 965.642,-1124.483 967.575,3361.732 969.508,-5610.699 971.440,12334.163 973.373,-23555.561 975.306,48223.887 977.238,-95335.008 979.171,191782.782 981.104,-382452.798 983.036,766018.362 984.969,-1530923.957 986.902,3062960.681 988.834,-6124808.595 990.767,12250729.956 992.700,-24500347.147 994.632,49001807.060 996.565,-98002501.354 998.497,196006115.474 1000.430,-392011118.183 1002.363,784023349.131 1004.295,-1568045585.497 1006.228,3136092283.759 1008.161,-6272183454.752 1010.093,12544368022.270 1012.026,-25088734931.775 1013.959,50177470976.316 1015.891,-100354940839.866 1017.824,200709882792.498 1019.757,-401419764472.230 1021.689,802839530057.227 1023.622,-1605679059001.682 1025.555,3211358119116.131 1027.487,-6422716237119.505 1029.420,12845432475351.811 1031.353,-25690864949590.852 1033.285,51381729900294.391 1035.218,-102763459799476.230 1037.151,205526919600065.000 1039.083,-411053839199017.250 1041.016,822107678399148.500 1042.949,-1644215356797185.500 1044.881,3288430713595477.500 1046.814,-6576861427189835.000 1048.747,13153722854380786.000 1050.679,-26307445708760568.000 1052.612,52614891417522160.000 1054.545,-105229782835043390.000 1056.477,210459565670087780.000 1058.410,-420919131340173060.000 1060.343,841838262680350340.000 1062.275,-1683676525360706000.000 1064.208,3367353050721411100.000 1066.140,-6734706101442836500.000 1068.073,13469412202885675000.000 1070.006,-26938824405771375000.000 1071.938,53877648811542643000.000 1073.871,-107755297623085400000.000 1075.804,215510595246171260000.000 1077.736,-431021190492340940000.000 1079.669,862042380984683860000.000 1081.602,-1724084761969365400000.000 1083.534,3448169523938735900000.000 1085.467,-6896339047877492900000.000 1087.400,13792678095754967000000.000 1089.332,-27585356191509934000000.000 1091.265,55170712383019867000000.000 1093.198,-110341424766039940000000.000 1095.130,220682849532079970000000.000 1097.063,-441365699064158940000000.000 1098.996,882731398128318420000000.000 1100.928,-1765462796256642700000000.000 1102.861,3530925592513294100000000.000 1104.794,-7061851185026564500000000.000 1106.726,14123702370053108000000000.000 1108.659,-28247404740106258000000000.000 1110.592,56494809480212327000000000.000 1112.524,-112989618960424720000000000.000 1114.457,225979237920849890000000000.000 1116.390,-451958475841699580000000000.000 1118.322,903916951683398880000000000.000 1120.255,-1807833903366798300000000000.000 1122.188,3615667806733613100000000000.000 1124.120,-7231335613467220700000000000.000 1126.053,14462671226934455000000000000.000 1127.985,-28925342453868918000000000000.000 1129.918,57850684907737872000000000000.000 1131.851,-115701369815475460000000000000.000 1133.783,231402739630950850000000000000.000 1135.716,-462805479261901710000000000000.000 1137.649,925610958523805940000000000000.000 1139.581,-1851221917047606800000000000000.000 1141.514,3702443834095228300000000000000.000 1143.447,-7404887668190443100000000000000.000 1145.379,14809775336380951000000000000000.000 1147.312,-29619550672761885000000000000000.000 1149.245,59239101345523815000000000000000.000 1151.177,-118478202691047340000000000000000.000 1153.110,236956405382094500000000000000000.000 1155.043,-473912810764189580000000000000000.000 1156.975,947825621528379740000000000000000.000 1158.908,-1895651243056763800000000000000000.000 1160.841,3791302486113529300000000000000000.000 1162.773,-7582604972227055200000000000000000.000 1164.706,15165209944454076000000000000000000.000 1166.639,-30330419888908285000000000000000000.000 1168.571,60660839777816552000000000000000000.000 1170.504,-121321679555633070000000000000000000.000 1172.437,242643359111266580000000000000000000.000 1174.369,-485286718222533520000000000000000000.000 1176.302,970573436445067490000000000000000000.000 1178.235,-1941146872890130600000000000000000000.000 1180.167,3882293745780266400000000000000000000.000 1182.100,-7764587491560539900000000000000000000.000 1184.033,15529174983121066000000000000000000000.000 1185.965,-31058349966242169000000000000000000000.000 1187.898,62116699932484386000000000000000000000.000 1189.830,-124233399864968580000000000000000000000.000 1191.763,248466799729937390000000000000000000000.000 1193.696,-496933599459875540000000000000000000000.000 1195.628,993867198919749110000000000000000000000.000 1197.561,-1987734397839502800000000000000000000000.000 1199.494,3975468795679009100000000000000000000000.000 1201.426,-7950937591358018300000000000000000000000.000 1203.359,15901875182716037000000000000000000000000.000 1205.292,-31803750365432112000000000000000000000000.000 1207.224,63607500730863972000000000000000000000000.000 1209.157,-127215001461727890000000000000000000000000.000 1211.090,254430002923456470000000000000000000000000.000 1213.022,-508860005846913170000000000000000000000000.000 1214.955,1017720011693826300000000000000000000000000.000 1216.888,-2035440023387654500000000000000000000000000.000 1218.820,4070880046775314600000000000000000000000000.000 1220.753,-8141760093550635500000000000000000000000000.000 1222.686,16283520187101273000000000000000000000000000.000 1224.618,-32567040374202492000000000000000000000000000.000 1226.551,65134080748404975000000000000000000000000000.000 1228.484,-130268161496810070000000000000000000000000000.000 1230.416,260536322993620490000000000000000000000000000.000 1232.349,-521072645987241230000000000000000000000000000.000 1234.282,1042145291974482500000000000000000000000000000.000 1236.214,-2084290583948965900000000000000000000000000000.000 1238.147,4168581167897941800000000000000000000000000000.000 1240.080,-8337162335795885000000000000000000000000000000.000 1242.012,16674324671591783000000000000000000000000000000.000 1243.945,-33348649343183565000000000000000000000000000000.000 1245.878,66697298686367232000000000000000000000000000000.000 1247.810,-133394597372734460000000000000000000000000000000.000 1249.743,266789194745468810000000000000000000000000000000.000 1251.675,-533578389490938180000000000000000000000000000000.000 1253.608,1067156778981877000000000000000000000000000000000.000 1255.541,-2134313557963755300000000000000000000000000000000.000 1257.473,4268627115927508000000000000000000000000000000000.000 1259.406,-8537254231855034200000000000000000000000000000000.000 1261.339,17074508463710063000000000000000000000000000000000.000 1263.271,-34149016927420111000000000000000000000000000000000.000 1265.204,68298033854840326000000000000000000000000000000000.000 1267.137,-136596067709680590000000000000000000000000000000000.000 1269.069,273192135419361390000000000000000000000000000000000.000 1271.002,-546384270838723020000000000000000000000000000000000.000 1272.935,1092768541677448000000000000000000000000000000000000.000 1274.867,-2185537083354897100000000000000000000000000000000000.000 1276.800,4371074166709796100000000000000000000000000000000000.000 1278.733,-8742148333419590900000000000000000000000000000000000.000 1280.665,17484296666839198000000000000000000000000000000000000.000 1282.598,-34968593333678417000000000000000000000000000000000000.000 1284.531,69937186667356866000000000000000000000000000000000000.000 1286.463,-139874373334713800000000000000000000000000000000000000.000 1288.396,279748746669427680000000000000000000000000000000000000.000 1290.329,-559497493338854930000000000000000000000000000000000000.000 1292.261,1118994986677711400000000000000000000000000000000000000.000 1294.194,-2237989973355423100000000000000000000000000000000000000.000 1296.127,4475979946710848900000000000000000000000000000000000000.000 1298.059,-8951959893421706000000000000000000000000000000000000000.000 1299.992,17903919786843428000000000000000000000000000000000000000.000 1301.925,-35807839573686879000000000000000000000000000000000000000.000 1303.857,71615679147373801000000000000000000000000000000000000000.000 1305.790,-143231358294747690000000000000000000000000000000000000000.000 1307.723,286462716589495510000000000000000000000000000000000000000.000 1309.655,-572925433178991190000000000000000000000000000000000000000.000 1311.588,1145850866357983800000000000000000000000000000000000000000.000 1313.520,-2291701732715966200000000000000000000000000000000000000000.000 1315.453,4583403465431935100000000000000000000000000000000000000000.000 1317.386,-9166806930863875800000000000000000000000000000000000000000.000 1319.318,18333613861727765000000000000000000000000000000000000000000.000 1321.251,-36667227723455548000000000000000000000000000000000000000000.000 1323.184,73334455446911140000000000000000000000000000000000000000000.000 1325.116,-146668910893822280000000000000000000000000000000000000000000.000 1327.049,293337821787644740000000000000000000000000000000000000000000.000 1328.982,-586675643575289830000000000000000000000000000000000000000000.000 1330.914,1173351287150580600000000000000000000000000000000000000000000.000 1332.847,-2346702574301161800000000000000000000000000000000000000000000.000 1334.780,4693405148602327200000000000000000000000000000000000000000000.000 1336.712,-9386810297204658700000000000000000000000000000000000000000000.000 1338.645,18773620594409317000000000000000000000000000000000000000000000.000 1340.578,-37547241188818658000000000000000000000000000000000000000000000.000 1342.510,75094482377637350000000000000000000000000000000000000000000000.000 1344.443,-150188964755274810000000000000000000000000000000000000000000000.000 1346.376,300377929510549720000000000000000000000000000000000000000000000.000 1348.308,-600755859021099710000000000000000000000000000000000000000000000.000 1350.241,1201511718042199800000000000000000000000000000000000000000000000.000 1352.174,-2403023436084400300000000000000000000000000000000000000000000000.000 1354.106,1201511718042200200000000000000000000000000000000000000000000000.000 "/>
<g>
</g>
</g>
    </g>
    <g>
      <polyline fill="none" stroke="#262626" stroke-width="0.5pt" stroke-dasharray="none" points="194.513,684.188 194.513,672.592 "/>
      <polyline fill="none" stroke="#262626" stroke-width="0.5pt" stroke-dasharray="none" points="387.778,684.188 387.778,672.592 "/>
      <polyline fill="none" stroke="#262626" stroke-width="0.5pt" stroke-dasharray="none" points="581.044,684.188 581.044,672.592 "/>
      <polyline fill="none" stroke="#262626" stroke-width="0.5pt" stroke-dasharray="none" points="774.309,684.188 774.309,672.592 "/>
      <polyline fill="none" stroke="#262626" stroke-width="0.5pt" stroke-dasharray="none" points="967.575,684.188 967.575,672.592 "/>
      <polyline fill="none" stroke="#262626" stroke-width="0.5pt" stroke-dasharray="none" points="1160.841,684.188 1160.841,672.592 "/>
      <polyline fill="none" stroke="#262626" stroke-width="0.5pt" stroke-dasharray="none" points="1354.106,684.188 1354.106,672.592 "/>
      <polyline fill="none" stroke="#262626" stroke-width="0.5pt" stroke-dasharray="none" points="194.513,684.188 1354.106,684.188 "/>
  <g transform="translate(194.513,707.781)">
    <g transform="rotate(-0.0)">
      <text x="0.000" y="0.000" font-family="times new roman" text-anchor="middle" font-size="9pt" fill="#262626" >0</text>
    </g>
  </g>
  <g transform="translate(387.778,707.781)">
    <g transform="rotate(-0.0)">
      <text x="0.000" y="0.000" font-family="times new roman" text-anchor="middle" font-size="9pt" fill="#262626" >100</text>
    </g>
  </g>
  <g transform="translate(581.044,707.781)">
    <g transform="rotate(-0.0)">
      <text x="0.000" y="0.000" font-family="times new roman" text-anchor="middle" font-size="9pt" fill="#262626" >200</text>
    </g>
  </g>
  <g transform="translate(774.309,707.781)">
    <g transform="rotate(-0.0)">
      <text x="0.000" y="0.000" font-family="times new roman" text-anchor="middle" font-size="9pt" fill="#262626" >300</text>
    </g>
  </g>
  <g transform="translate(967.575,707.781)">
    <g transform="rotate(-0.0)">
      <text x="0.000" y="0.000" font-family="times new roman" text-anchor="middle" font-size="9pt" fill="#262626" >400</text>
    </g>
  </g>
  <g transform="translate(1160.841,707.781)">
    <g transform="rotate(-0.0)">
      <text x="0.000" y="0.000" font-family="times new roman" text-anchor="middle" font-size="9pt" fill="#262626" >500</text>
    </g>
  </g>
  <g transform="translate(1354.106,707.781)">
    <g transform="rotate(-0.0)">
      <text x="0.000" y="0.000" font-family="times new roman" text-anchor="middle" font-size="9pt" fill="#262626" >600</text>
    </g>
  </g>
      <polyline fill="none" stroke="#262626" stroke-width="0.5pt" stroke-dasharray="none" points="194.513,684.188 206.108,684.188 "/>
      <polyline fill="none" stroke="#262626" stroke-width="0.5pt" stroke-dasharray="none" points="194.513,621.534 206.108,621.534 "/>
      <polyline fill="none" stroke="#262626" stroke-width="0.5pt" stroke-dasharray="none" points="194.513,558.881 206.108,558.881 "/>
      <polyline fill="none" stroke="#262626" stroke-width="0.5pt" stroke-dasharray="none" points="194.513,496.228 206.108,496.228 "/>
      <polyline fill="none" stroke="#262626" stroke-width="0.5pt" stroke-dasharray="none" points="194.513,433.575 206.108,433.575 "/>
      <polyline fill="none" stroke="#262626" stroke-width="0.5pt" stroke-dasharray="none" points="194.513,370.922 206.108,370.922 "/>
      <polyline fill="none" stroke="#262626" stroke-width="0.5pt" stroke-dasharray="none" points="194.513,308.269 206.108,308.269 "/>
      <polyline fill="none" stroke="#262626" stroke-width="0.5pt" stroke-dasharray="none" points="194.513,245.616 206.108,245.616 "/>
      <polyline fill="none" stroke="#262626" stroke-width="0.5pt" stroke-dasharray="none" points="194.513,182.962 206.108,182.962 "/>
      <polyline fill="none" stroke="#262626" stroke-width="0.5pt" stroke-dasharray="none" points="194.513,120.309 206.108,120.309 "/>
      <polyline fill="none" stroke="#262626" stroke-width="0.5pt" stroke-dasharray="none" points="194.513,57.656 206.108,57.656 "/>
      <polyline fill="none" stroke="#262626" stroke-width="0.5pt" stroke-dasharray="none" points="194.513,684.188 194.513,57.656 "/>
  <g transform="translate(171.321,688.406)">
    <g transform="rotate(-0.0)">
      <text x="0.000" y="0.000" font-family="times new roman" text-anchor="end" font-size="9pt" fill="#262626" >-1</text>
    </g>
  </g>
  <g transform="translate(171.321,625.753)">
    <g transform="rotate(-0.0)">
      <text x="0.000" y="0.000" font-family="times new roman" text-anchor="end" font-size="9pt" fill="#262626" >-0.8</text>
    </g>
  </g>
  <g transform="translate(171.321,563.100)">
    <g transform="rotate(-0.0)">
      <text x="0.000" y="0.000" font-family="times new roman" text-anchor="end" font-size="9pt" fill="#262626" >-0.6</text>
    </g>
  </g>
  <g transform="translate(171.321,500.447)">
    <g transform="rotate(-0.0)">
      <text x="0.000" y="0.000" font-family="times new roman" text-anchor="end" font-size="9pt" fill="#262626" >-0.4</text>
    </g>
  </g>
  <g transform="translate(171.321,437.794)">
    <g transform="rotate(-0.0)">
      <text x="0.000" y="0.000" font-family="times new roman" text-anchor="end" font-size="9pt" fill="#262626" >-0.2</text>
    </g>
  </g>
  <g transform="translate(171.321,375.141)">
    <g transform="rotate(-0.0)">
      <text x="0.000" y="0.000" font-family="times new roman" text-anchor="end" font-size="9pt" fill="#262626" >0</text>
    </g>
  </g>
  <g transform="translate(171.321,312.487)">
    <g transform="rotate(-0.0)">
      <text x="0.000" y="0.000" font-family="times new roman" text-anchor="end" font-size="9pt" fill="#262626" >0.2</text>
    </g>
  </g>
  <g transform="translate(171.321,249.834)">
    <g transform="rotate(-0.0)">
      <text x="0.000" y="0.000" font-family="times new roman" text-anchor="end" font-size="9pt" fill="#262626" >0.4</text>
    </g>
  </g>
  <g transform="translate(171.321,187.181)">
    <g transform="rotate(-0.0)">
      <text x="0.000" y="0.000" font-family="times new roman" text-anchor="end" font-size="9pt" fill="#262626" >0.6</text>
    </g>
  </g>
  <g transform="translate(171.321,124.528)">
    <g transform="rotate(-0.0)">
      <text x="0.000" y="0.000" font-family="times new roman" text-anchor="end" font-size="9pt" fill="#262626" >0.8</text>
    </g>
  </g>
  <g transform="translate(171.321,61.875)">
    <g transform="rotate(-0.0)">
      <text x="0.000" y="0.000" font-family="times new roman" text-anchor="end" font-size="9pt" fill="#262626" >1</text>
    </g>
  </g>
      <polyline fill="none" stroke="#262626" stroke-width="0.5pt" stroke-dasharray="none" points="194.513,684.188 194.513,677.922 "/>
      <polyline fill="none" stroke="#262626" stroke-width="0.5pt" stroke-dasharray="none" points="194.513,684.188 194.513,677.922 "/>
      <polyline fill="none" stroke="#262626" stroke-width="0.5pt" stroke-dasharray="none" points="194.513,684.187 194.513,677.922 "/>
      <polyline fill="none" stroke="#262626" stroke-width="0.5pt" stroke-dasharray="none" points="194.513,684.188 194.513,684.187 "/>
    </g>
  </g>
  </g>
</svg>
