<?xml version="1.0" encoding="utf-8" standalone="no"?><!DOCTYPE svg PUBLIC "-//W3C//DTD SVG 1.1//EN" "http://www.w3.org/Graphics/SVG/1.1/DTD/svg11.dtd">
<svg preserveAspectRatio="xMinYMin meet" width="100%" height="100%" viewBox="0 0 525.000 393.750"  version="1.1" xmlns="http://www.w3.org/2000/svg" xmlns:xlink="http://www.w3.org/1999/xlink">
  <desc>Matlab Figure Converted by PLOT2SVG written by Juerg Schwizer</desc>
  <g id="topgroup">
  <rect x="0" y="0" width="525.000" height="393.750" fill="#ffffff" stroke="none" />
  <g id ="ID000000">
  <clipPath id="ID000001">
    <rect x="78.875" y="29.531" width="396.250" height="320.906"/>
  </clipPath>
      <polygon fill="#ffffff" fill-opacity="1.00" stroke="none" stroke-width="0.5pt" stroke-opacity="1.00" stroke-dasharray="none" points="78.875,350.438 475.125,350.438 475.125,29.531 78.875,29.531 "/>
      <polygon fill="#ffffff" fill-opacity="1.00" stroke="none" stroke-width="0.5pt" stroke-opacity="1.00" stroke-dasharray="none" points="78.875,29.531 475.125,29.531 475.125,29.531 78.875,29.531 "/>
      <polygon fill="#ffffff" fill-opacity="1.00" stroke="none" stroke-width="0.5pt" stroke-opacity="1.00" stroke-dasharray="none" points="78.875,350.438 78.875,350.438 78.875,29.531 78.875,29.531 "/>
    <g>
<g id="ID000002" >
  <g transform="translate(16.032,189.984)">
    <g transform="rotate(-90.0)">
      <text x="0.000" y="0.000" font-family="Helvetica" text-anchor="middle" font-size="10pt" fill="#262626" ><tspan>&#915;</tspan><tspan></tspan></text>
    </g>
  </g>
</g>
<g id="ID000003" >
  <g transform="translate(277.000,384.748)">
    <g transform="rotate(-0.0)">
      <text x="0.000" y="0.000" font-family="Helvetica" text-anchor="middle" font-size="10pt" fill="#262626" >Frequency [GHz]</text>
    </g>
  </g>
</g>
<g id="ID000004" >
  <g transform="translate(277.000,24.380)">
    <g transform="rotate(-0.0)">
      <text x="0.000" y="0.000" font-family="Helvetica" text-anchor="middle" font-size="10pt" font-weight="bold" fill="#000000" >Reflection Coefficient</text>
    </g>
  </g>
</g>
<g id="ID000005" clip-path="url(#ID000001)" >
      <polyline fill="none" stroke="#0071bc" stroke-width="0.5pt" stroke-dasharray="none" points="79.566,334.698 80.256,319.044 80.947,303.552 81.637,288.301 82.328,273.365 83.018,258.811 83.709,244.703 84.399,231.095 85.090,218.033 85.780,205.557 86.471,193.694 87.161,182.467 87.852,171.887 88.542,161.957 89.233,152.676 89.923,144.033 90.614,136.013 91.304,128.597 91.995,121.761 92.686,115.482 93.376,109.734 94.067,104.492 94.757,99.734 95.448,95.439 96.138,91.587 96.829,88.163 97.519,85.154 98.210,82.552 98.900,80.348 99.591,78.540 100.281,77.122 100.972,76.095 101.662,75.457 102.353,75.208 103.043,75.348 103.734,75.878 104.425,76.797 105.115,78.106 105.806,79.807 106.496,81.903 107.187,84.397 107.877,87.296 108.568,90.608 109.258,94.346 109.949,98.523 110.639,103.158 111.330,108.271 112.020,113.885 112.711,120.023 113.401,126.710 114.092,133.972 114.782,141.832 115.473,150.309 116.163,159.421 116.854,169.178 117.545,179.587 118.235,190.644 118.926,202.341 119.616,214.660 120.307,227.572 120.997,241.043 121.688,255.028 122.378,269.474 123.069,284.322 123.759,299.504 124.450,314.949 125.140,330.578 125.831,346.308 126.521,338.801 127.212,323.105 127.902,307.549 128.593,292.214 129.283,277.174 129.974,262.500 130.665,248.256 131.355,234.499 132.046,221.279 132.736,208.635 133.427,196.600 134.117,185.197 134.808,174.441 135.498,164.337 136.189,154.884 136.879,146.073 137.570,137.891 138.260,130.319 138.951,123.335 139.641,116.914 140.332,111.031 141.022,105.661 141.713,100.781 142.403,96.367 143.094,92.401 143.785,88.866 144.475,85.749 145.166,83.040 145.856,80.732 146.547,78.818 147.237,77.297 147.928,76.166 148.618,75.426 149.309,75.075 149.999,75.114 150.690,75.544 151.380,76.364 152.071,77.575 152.761,79.180 153.452,81.179 154.142,83.576 154.833,86.378 155.524,89.592 156.214,93.228 156.905,97.302 157.595,101.829 158.286,106.829 158.976,112.324 159.667,118.338 160.357,124.896 161.048,132.023 161.738,139.743 162.429,148.078 163.119,157.044 163.810,166.656 164.500,176.920 165.191,187.836 165.881,199.396 166.572,211.586 167.262,224.379 167.953,237.743 168.644,251.635 169.334,266.004 170.025,280.792 170.715,295.933 171.406,311.355 172.096,326.981 172.787,342.731 173.477,342.344 174.168,326.592 174.858,310.962 175.549,295.535 176.239,280.388 176.930,265.594 177.620,251.217 178.311,237.318 179.001,223.948 179.692,211.149 180.382,198.956 181.073,187.394 181.764,176.478 182.454,166.217 183.145,156.611 183.835,147.652 184.526,139.327 185.216,131.619 185.907,124.504 186.597,117.959 187.288,111.959 187.978,106.477 188.669,101.489 189.359,96.973 190.050,92.909 190.740,89.279 191.431,86.069 192.121,83.270 192.812,80.873 193.503,78.872 194.193,77.266 194.884,76.051 195.574,75.228 196.265,74.797 196.955,74.757 197.646,75.109 198.336,75.854 199.027,76.992 199.717,78.523 200.408,80.451 201.098,82.777 201.789,85.507 202.479,88.648 203.170,92.211 203.860,96.208 204.551,100.655 205.241,105.573 205.932,110.982 206.623,116.906 207.313,123.372 208.004,130.403 208.694,138.025 209.385,146.261 210.075,155.128 210.766,164.642 211.456,174.811 212.147,185.638 212.837,197.115 213.528,209.229 214.218,221.956 214.909,235.264 215.599,249.113 216.290,263.452 216.980,278.223 217.671,293.362 218.361,308.797 219.052,324.452 219.743,340.245 220.433,344.775 221.124,328.955 221.814,313.244 222.505,297.726 223.195,282.478 223.886,267.575 224.576,253.084 225.267,239.066 225.957,225.573 226.648,212.651 227.338,200.334 228.029,188.649 228.719,177.613 229.410,167.235 230.100,157.516 230.791,148.450 231.481,140.022 232.172,132.216 232.863,125.009 233.553,118.377 234.244,112.294 234.934,106.734 235.625,101.673 236.315,97.086 237.006,92.955 237.696,89.261 238.387,85.991 239.077,83.132 239.768,80.679 240.458,78.625 241.149,76.966 241.839,75.702 242.530,74.832 243.220,74.356 243.911,74.274 244.602,74.586 245.292,75.292 245.983,76.393 246.673,77.889 247.364,79.782 248.054,82.075 248.745,84.772 249.435,87.879 250.126,91.408 250.816,95.370 251.507,99.781 252.197,104.662 252.888,110.033 253.578,115.920 254.269,122.347 254.959,129.342 255.650,136.929 256.340,145.131 257.031,153.969 257.722,163.458 258.412,173.608 259.103,184.421 259.793,195.892 260.484,208.007 261.174,220.745 261.865,234.072 262.555,247.948 263.246,262.323 263.936,277.139 264.627,292.330 265.317,307.825 266.008,323.547 266.698,339.412 267.389,345.530 268.079,329.630 268.770,313.835 269.460,298.232 270.151,282.899 270.842,267.912 271.532,253.338 272.223,239.239 272.913,225.670 273.604,212.674 274.294,200.289 274.985,188.539 275.675,177.444 276.366,167.012 277.056,157.244 277.747,148.132 278.437,139.663 279.128,131.820 279.818,124.579 280.509,117.917 281.199,111.807 281.890,106.222 282.580,101.138 283.271,96.531 283.962,92.382 284.652,88.673 285.343,85.389 286.033,82.520 286.724,80.059 287.414,77.999 288.105,76.338 288.795,75.075 289.486,74.207 290.176,73.737 290.867,73.663 291.557,73.985 292.248,74.703 292.938,75.818 293.629,77.329 294.319,79.238 295.010,81.548 295.701,84.262 296.391,87.388 297.082,90.936 297.772,94.919 298.463,99.353 299.153,104.259 299.844,109.659 300.534,115.578 301.225,122.043 301.915,129.082 302.606,136.719 303.296,144.979 303.987,153.883 304.677,163.445 305.368,173.677 306.058,184.580 306.749,196.149 307.439,208.368 308.130,221.216 308.821,234.658 309.511,248.653 310.202,263.149 310.892,278.086 311.583,293.398 312.273,309.010 312.964,324.844 313.654,340.816 314.345,344.027 315.035,328.036 315.726,312.161 316.416,296.487 317.107,281.096 317.797,266.062 318.488,251.453 319.178,237.331 319.869,223.750 320.559,210.753 321.250,198.376 321.941,186.644 322.631,175.573 323.322,165.172 324.012,155.440 324.703,146.369 325.393,137.944 326.084,130.146 326.774,122.952 327.465,116.338 328.155,110.275 328.846,104.739 329.536,99.703 330.227,95.145 330.917,91.046 331.608,87.387 332.298,84.156 332.989,81.342 333.680,78.937 334.370,76.937 335.061,75.339 335.751,74.140 336.442,73.341 337.132,72.941 337.823,72.939 338.513,73.336 339.204,74.130 339.894,75.321 340.585,76.910 341.275,78.898 341.966,81.288 342.656,84.084 343.347,87.295 344.037,90.931 344.728,95.006 345.418,99.540 346.109,104.553 346.800,110.069 347.490,116.114 348.181,122.718 348.871,129.906 349.562,137.707 350.252,146.143 350.943,155.236 351.633,165.000 352.324,175.444 353.014,186.568 353.705,198.365 354.395,210.818 355.086,223.900 355.776,237.575 356.467,251.799 357.157,266.516 357.848,281.664 358.538,297.172 359.229,312.965 359.920,328.960 360.610,345.069 361.301,339.656 361.991,323.571 362.682,307.629 363.372,291.915 364.063,276.508 364.753,261.484 365.444,246.909 366.134,232.843 366.825,219.338 367.515,206.436 368.206,194.169 368.896,182.561 369.587,171.625 370.277,161.366 370.968,151.782 371.658,142.861 372.349,134.588 373.040,126.942 373.730,119.899 374.421,113.432 375.111,107.514 375.802,102.120 376.492,97.223 377.183,92.803 377.873,88.840 378.564,85.317 379.254,82.221 379.945,79.544 380.635,77.278 381.326,75.418 382.016,73.963 382.707,72.909 383.397,72.257 384.088,72.005 384.779,72.153 385.469,72.700 386.160,73.645 386.850,74.989 387.541,76.731 388.231,78.874 388.922,81.421 389.612,84.380 390.303,87.758 390.993,91.570 391.684,95.833 392.374,100.565 393.065,105.791 393.755,111.538 394.446,117.832 395.136,124.704 395.827,132.181 396.517,140.291 397.208,149.055 397.899,158.493 398.589,168.618 399.280,179.435 399.970,190.940 400.661,203.122 401.351,215.959 402.042,229.421 402.732,243.464 403.423,258.040 404.113,273.088 404.804,288.541 405.494,304.324 406.185,320.357 406.875,336.554 407.566,348.030 408.256,331.779 408.947,315.618 409.637,299.644 410.328,283.941 411.019,268.588 411.709,253.656 412.400,239.212 413.090,225.311 413.781,212.001 414.471,199.320 415.162,187.296 415.852,175.948 416.543,165.286 417.233,155.309 417.924,146.011 418.614,137.378 419.305,129.391 419.995,122.028 420.686,115.261 421.376,109.064 422.067,103.409 422.758,98.271 423.448,93.625 424.139,89.449 "/>
<g>
</g>
</g>
    </g>
    <g>
      <polyline fill="none" stroke="#262626" stroke-width="0.5pt" stroke-dasharray="none" points="135.482,350.438 135.482,346.475 "/>
      <polyline fill="none" stroke="#262626" stroke-width="0.5pt" stroke-dasharray="none" points="192.089,350.438 192.089,346.475 "/>
      <polyline fill="none" stroke="#262626" stroke-width="0.5pt" stroke-dasharray="none" points="248.696,350.438 248.696,346.475 "/>
      <polyline fill="none" stroke="#262626" stroke-width="0.5pt" stroke-dasharray="none" points="305.304,350.438 305.304,346.475 "/>
      <polyline fill="none" stroke="#262626" stroke-width="0.5pt" stroke-dasharray="none" points="361.911,350.438 361.911,346.475 "/>
      <polyline fill="none" stroke="#262626" stroke-width="0.5pt" stroke-dasharray="none" points="418.518,350.438 418.518,346.475 "/>
      <polyline fill="none" stroke="#262626" stroke-width="0.5pt" stroke-dasharray="none" points="78.875,350.438 475.125,350.438 "/>
      <polyline fill="none" stroke="#262626" stroke-width="0.5pt" stroke-dasharray="none" points="135.482,29.531 135.482,33.494 "/>
      <polyline fill="none" stroke="#262626" stroke-width="0.5pt" stroke-dasharray="none" points="192.089,29.531 192.089,33.494 "/>
      <polyline fill="none" stroke="#262626" stroke-width="0.5pt" stroke-dasharray="none" points="248.696,29.531 248.696,33.494 "/>
      <polyline fill="none" stroke="#262626" stroke-width="0.5pt" stroke-dasharray="none" points="305.304,29.531 305.304,33.494 "/>
      <polyline fill="none" stroke="#262626" stroke-width="0.5pt" stroke-dasharray="none" points="361.911,29.531 361.911,33.494 "/>
      <polyline fill="none" stroke="#262626" stroke-width="0.5pt" stroke-dasharray="none" points="418.518,29.531 418.518,33.494 "/>
      <polyline fill="none" stroke="#262626" stroke-width="0.5pt" stroke-dasharray="none" points="78.875,29.531 475.125,29.531 "/>
  <g transform="translate(78.875,367.918)">
    <g transform="rotate(-0.0)">
      <text x="0.000" y="0.000" font-family="Helvetica" text-anchor="middle" font-size="9pt" fill="#262626" >0</text>
    </g>
  </g>
  <g transform="translate(135.482,367.918)">
    <g transform="rotate(-0.0)">
      <text x="0.000" y="0.000" font-family="Helvetica" text-anchor="middle" font-size="9pt" fill="#262626" >1</text>
    </g>
  </g>
  <g transform="translate(192.089,367.918)">
    <g transform="rotate(-0.0)">
      <text x="0.000" y="0.000" font-family="Helvetica" text-anchor="middle" font-size="9pt" fill="#262626" >2</text>
    </g>
  </g>
  <g transform="translate(248.696,367.918)">
    <g transform="rotate(-0.0)">
      <text x="0.000" y="0.000" font-family="Helvetica" text-anchor="middle" font-size="9pt" fill="#262626" >3</text>
    </g>
  </g>
  <g transform="translate(305.304,367.918)">
    <g transform="rotate(-0.0)">
      <text x="0.000" y="0.000" font-family="Helvetica" text-anchor="middle" font-size="9pt" fill="#262626" >4</text>
    </g>
  </g>
  <g transform="translate(361.911,367.918)">
    <g transform="rotate(-0.0)">
      <text x="0.000" y="0.000" font-family="Helvetica" text-anchor="middle" font-size="9pt" fill="#262626" >5</text>
    </g>
  </g>
  <g transform="translate(418.518,367.918)">
    <g transform="rotate(-0.0)">
      <text x="0.000" y="0.000" font-family="Helvetica" text-anchor="middle" font-size="9pt" fill="#262626" >6</text>
    </g>
  </g>
  <g transform="translate(475.125,367.918)">
    <g transform="rotate(-0.0)">
      <text x="0.000" y="0.000" font-family="Helvetica" text-anchor="middle" font-size="9pt" fill="#262626" >7</text>
    </g>
  </g>
      <polyline fill="none" stroke="#262626" stroke-width="0.5pt" stroke-dasharray="none" points="78.875,304.594 82.837,304.594 "/>
      <polyline fill="none" stroke="#262626" stroke-width="0.5pt" stroke-dasharray="none" points="78.875,258.750 82.837,258.750 "/>
      <polyline fill="none" stroke="#262626" stroke-width="0.5pt" stroke-dasharray="none" points="78.875,212.906 82.837,212.906 "/>
      <polyline fill="none" stroke="#262626" stroke-width="0.5pt" stroke-dasharray="none" points="78.875,167.063 82.837,167.063 "/>
      <polyline fill="none" stroke="#262626" stroke-width="0.5pt" stroke-dasharray="none" points="78.875,121.219 82.837,121.219 "/>
      <polyline fill="none" stroke="#262626" stroke-width="0.5pt" stroke-dasharray="none" points="78.875,75.375 82.837,75.375 "/>
      <polyline fill="none" stroke="#262626" stroke-width="0.5pt" stroke-dasharray="none" points="78.875,350.438 78.875,29.531 "/>
      <polyline fill="none" stroke="#262626" stroke-width="0.5pt" stroke-dasharray="none" points="475.125,304.594 471.162,304.594 "/>
      <polyline fill="none" stroke="#262626" stroke-width="0.5pt" stroke-dasharray="none" points="475.125,258.750 471.162,258.750 "/>
      <polyline fill="none" stroke="#262626" stroke-width="0.5pt" stroke-dasharray="none" points="475.125,212.906 471.162,212.906 "/>
      <polyline fill="none" stroke="#262626" stroke-width="0.5pt" stroke-dasharray="none" points="475.125,167.063 471.162,167.063 "/>
      <polyline fill="none" stroke="#262626" stroke-width="0.5pt" stroke-dasharray="none" points="475.125,121.219 471.162,121.219 "/>
      <polyline fill="none" stroke="#262626" stroke-width="0.5pt" stroke-dasharray="none" points="475.125,75.375 471.162,75.375 "/>
      <polyline fill="none" stroke="#262626" stroke-width="0.5pt" stroke-dasharray="none" points="475.125,350.438 475.125,29.531 "/>
  <g transform="translate(70.950,354.656)">
    <g transform="rotate(-0.0)">
      <text x="0.000" y="0.000" font-family="Helvetica" text-anchor="end" font-size="9pt" fill="#262626" >0</text>
    </g>
  </g>
  <g transform="translate(70.950,308.813)">
    <g transform="rotate(-0.0)">
      <text x="0.000" y="0.000" font-family="Helvetica" text-anchor="end" font-size="9pt" fill="#262626" >0.142857</text>
    </g>
  </g>
  <g transform="translate(70.950,262.969)">
    <g transform="rotate(-0.0)">
      <text x="0.000" y="0.000" font-family="Helvetica" text-anchor="end" font-size="9pt" fill="#262626" >0.285714</text>
    </g>
  </g>
  <g transform="translate(70.950,217.125)">
    <g transform="rotate(-0.0)">
      <text x="0.000" y="0.000" font-family="Helvetica" text-anchor="end" font-size="9pt" fill="#262626" >0.428571</text>
    </g>
  </g>
  <g transform="translate(70.950,171.281)">
    <g transform="rotate(-0.0)">
      <text x="0.000" y="0.000" font-family="Helvetica" text-anchor="end" font-size="9pt" fill="#262626" >0.571429</text>
    </g>
  </g>
  <g transform="translate(70.950,125.438)">
    <g transform="rotate(-0.0)">
      <text x="0.000" y="0.000" font-family="Helvetica" text-anchor="end" font-size="9pt" fill="#262626" >0.714286</text>
    </g>
  </g>
  <g transform="translate(70.950,79.594)">
    <g transform="rotate(-0.0)">
      <text x="0.000" y="0.000" font-family="Helvetica" text-anchor="end" font-size="9pt" fill="#262626" >0.857143</text>
    </g>
  </g>
  <g transform="translate(70.950,33.750)">
    <g transform="rotate(-0.0)">
      <text x="0.000" y="0.000" font-family="Helvetica" text-anchor="end" font-size="9pt" fill="#262626" >1</text>
    </g>
  </g>
      <polyline fill="none" stroke="#262626" stroke-width="0.5pt" stroke-dasharray="none" points="78.875,350.438 78.875,347.228 "/>
      <polyline fill="none" stroke="#262626" stroke-width="0.5pt" stroke-dasharray="none" points="78.875,350.438 78.875,350.438 "/>
    </g>
  </g>
  </g>
</svg>
