<?xml version="1.0" encoding="utf-8" standalone="no"?><!DOCTYPE svg PUBLIC "-//W3C//DTD SVG 1.1//EN" "http://www.w3.org/Graphics/SVG/1.1/DTD/svg11.dtd">
<svg preserveAspectRatio="xMinYMin meet" width="100%" height="100%" viewBox="0 0 525.000 393.750"  version="1.1" xmlns="http://www.w3.org/2000/svg" xmlns:xlink="http://www.w3.org/1999/xlink">
  <desc>Matlab Figure Converted by PLOT2SVG written by Juerg Schwizer</desc>
  <g id="topgroup">
  <rect x="0" y="0" width="525.000" height="393.750" fill="#ffffff" stroke="none" />
  <g id ="ID000000">
  <clipPath id="ID000001">
    <rect x="68.250" y="29.531" width="406.875" height="320.906"/>
  </clipPath>
      <polygon fill="#ffffff" fill-opacity="1.00" stroke="none" stroke-width="0.5pt" stroke-opacity="1.00" stroke-dasharray="none" points="68.250,350.438 475.125,350.438 475.125,29.531 68.250,29.531 "/>
      <polygon fill="#ffffff" fill-opacity="1.00" stroke="none" stroke-width="0.5pt" stroke-opacity="1.00" stroke-dasharray="none" points="68.250,29.531 475.125,29.531 475.125,29.531 68.250,29.531 "/>
      <polygon fill="#ffffff" fill-opacity="1.00" stroke="none" stroke-width="0.5pt" stroke-opacity="1.00" stroke-dasharray="none" points="68.250,350.438 68.250,350.437 68.250,29.531 68.250,29.531 "/>
    <g>
<g id="ID000002" >
  <g transform="translate(35.359,189.984)">
    <g transform="rotate(-90.0)">
      <text x="0.000" y="0.000" font-family="Helvetica" text-anchor="middle" font-size="10pt" fill="#262626" >Magnitude</text>
    </g>
  </g>
</g>
<g id="ID000003" >
  <g transform="translate(271.688,384.748)">
    <g transform="rotate(-0.0)">
      <text x="0.000" y="0.000" font-family="Helvetica" text-anchor="middle" font-size="10pt" fill="#262626" >Time [ps]</text>
    </g>
  </g>
</g>
<g id="ID000004" >
  <g transform="translate(271.688,24.380)">
    <g transform="rotate(-0.0)">
      <text x="0.000" y="0.000" font-family="Helvetica" text-anchor="middle" font-size="10pt" font-weight="bold" fill="#000000" >Source Signal Waveform</text>
    </g>
  </g>
</g>
<g id="ID000005" clip-path="url(#ID000001)" >
      <polyline fill="none" stroke="#0071bc" stroke-width="0.5pt" stroke-dasharray="none" points="69.064,189.984 69.877,189.984 70.691,189.984 71.505,189.984 72.319,189.984 73.133,189.983 73.946,189.981 74.760,189.979 75.574,189.974 76.388,189.965 77.201,189.949 78.015,189.921 78.829,189.875 79.643,189.798 80.456,189.675 81.270,189.479 82.084,189.175 82.897,188.716 83.711,188.034 84.525,187.046 85.339,185.644 86.153,183.700 86.966,181.067 87.780,177.581 88.594,173.073 89.407,167.383 90.221,160.378 91.035,151.969 91.849,142.138 92.662,130.957 93.476,118.606 94.290,105.379 95.104,91.687 95.918,78.040 96.731,65.023 97.545,53.255 98.359,43.341 99.172,35.823 99.986,31.128 100.800,29.531 101.614,31.128 102.428,35.823 103.241,43.341 104.055,53.255 104.869,65.023 105.682,78.040 106.496,91.687 107.310,105.379 108.124,118.606 108.938,130.957 109.751,142.138 110.565,151.969 111.379,160.378 112.193,167.383 113.006,173.073 113.820,177.581 114.634,181.067 115.447,183.700 116.261,185.644 117.075,187.046 117.889,188.034 118.703,188.716 119.516,189.175 120.330,189.479 121.144,189.675 121.958,189.798 122.771,189.875 123.585,189.921 124.399,189.949 125.213,189.965 126.026,189.974 126.840,189.979 127.654,189.981 128.468,189.983 129.281,189.984 130.095,189.984 130.909,189.984 131.723,189.984 132.536,189.984 133.350,189.984 134.164,189.984 134.977,189.984 135.791,189.984 136.605,189.984 137.419,189.984 138.232,189.984 139.046,189.984 139.860,189.984 140.674,189.984 141.487,189.984 142.301,189.984 143.115,189.984 143.929,189.984 144.743,189.984 145.556,189.984 146.370,189.984 147.184,189.984 147.998,189.984 148.811,189.984 149.625,189.984 150.439,189.984 151.252,189.984 152.066,189.984 152.880,189.984 153.694,189.984 154.507,189.984 155.321,189.984 156.135,189.984 156.949,189.984 157.762,189.984 158.576,189.984 159.390,189.984 160.204,189.984 161.017,189.984 161.831,189.984 162.645,189.984 163.459,189.984 164.273,189.984 165.086,189.984 165.900,189.984 166.714,189.984 167.528,189.984 168.341,189.984 169.155,189.984 169.969,189.984 170.783,189.984 171.596,189.984 172.410,189.984 173.224,189.984 174.038,189.984 174.851,189.984 175.665,189.984 176.479,189.984 177.292,189.984 178.106,189.984 178.920,189.984 179.734,189.984 180.548,189.984 181.361,189.984 182.175,189.984 182.989,189.984 183.802,189.984 184.616,189.984 185.430,189.984 186.244,189.984 187.058,189.984 187.871,189.984 188.685,189.984 189.499,189.984 190.313,189.984 191.126,189.984 191.940,189.984 192.754,189.984 193.568,189.984 194.381,189.984 195.195,189.984 196.009,189.984 196.823,189.984 197.636,189.984 198.450,189.984 199.264,189.984 200.077,189.984 200.891,189.984 201.705,189.984 202.519,189.984 203.333,189.984 204.146,189.984 204.960,189.984 205.774,189.984 206.588,189.984 207.401,189.984 208.215,189.984 209.029,189.984 209.843,189.984 210.656,189.984 211.470,189.984 212.284,189.984 213.098,189.984 213.911,189.984 214.725,189.984 215.539,189.984 216.353,189.984 217.166,189.984 217.980,189.984 218.794,189.984 219.608,189.984 220.421,189.984 221.235,189.984 222.049,189.984 222.863,189.984 223.676,189.984 224.490,189.984 225.304,189.984 226.118,189.984 226.931,189.984 227.745,189.984 228.559,189.984 229.373,189.984 230.186,189.984 231.000,189.984 231.814,189.984 232.628,189.984 233.441,189.984 234.255,189.984 235.069,189.984 235.882,189.984 236.696,189.984 237.510,189.984 238.324,189.984 239.138,189.984 239.951,189.984 240.765,189.984 241.579,189.984 242.393,189.984 243.206,189.984 244.020,189.984 244.834,189.984 245.648,189.984 246.461,189.984 247.275,189.984 248.089,189.984 248.903,189.984 249.716,189.984 250.530,189.984 251.344,189.984 252.158,189.984 252.971,189.984 253.785,189.984 254.599,189.984 255.413,189.984 256.226,189.984 257.040,189.984 257.854,189.984 258.668,189.984 259.481,189.984 260.295,189.984 261.109,189.984 261.923,189.984 262.736,189.984 263.550,189.984 264.364,189.984 265.178,189.984 265.991,189.984 266.805,189.984 267.619,189.984 268.433,189.984 269.246,189.984 270.060,189.984 270.874,189.984 271.688,189.984 272.501,189.984 273.315,189.984 274.129,189.984 274.943,189.984 275.756,189.984 276.570,189.984 277.384,189.984 278.198,189.984 279.011,189.984 279.825,189.984 280.639,189.984 281.452,189.984 282.266,189.984 283.080,189.984 283.894,189.984 284.707,189.984 285.521,189.984 286.335,189.984 287.149,189.984 287.962,189.984 288.776,189.984 289.590,189.984 290.404,189.984 291.217,189.984 292.031,189.984 292.845,189.984 293.659,189.984 294.473,189.984 295.286,189.984 296.100,189.984 296.914,189.984 297.727,189.984 298.541,189.984 299.355,189.984 300.169,189.984 300.982,189.984 301.796,189.984 302.610,189.984 303.424,189.984 304.237,189.984 305.051,189.984 305.865,189.984 306.679,189.984 307.493,189.984 308.306,189.984 309.120,189.984 309.934,189.984 310.748,189.984 311.561,189.984 312.375,189.984 313.189,189.984 314.003,189.984 314.816,189.984 315.630,189.984 316.444,189.984 317.258,189.984 318.071,189.984 318.885,189.984 319.699,189.984 320.513,189.984 321.326,189.984 322.140,189.984 322.954,189.984 323.768,189.984 324.581,189.984 325.395,189.984 326.209,189.984 327.022,189.984 327.836,189.984 328.650,189.984 329.464,189.984 330.277,189.984 331.091,189.984 331.905,189.984 332.719,189.984 333.533,189.984 334.346,189.984 335.160,189.984 335.974,189.984 336.788,189.984 337.601,189.984 338.415,189.984 339.229,189.984 340.043,189.984 340.856,189.984 341.670,189.984 342.484,189.984 343.298,189.984 344.111,189.984 344.925,189.984 345.739,189.984 346.553,189.984 347.366,189.984 348.180,189.984 348.994,189.984 349.808,189.984 350.621,189.984 351.435,189.984 352.249,189.984 353.063,189.984 353.876,189.984 354.690,189.984 355.504,189.984 356.318,189.984 357.131,189.984 357.945,189.984 358.759,189.984 359.572,189.984 360.386,189.984 361.200,189.984 362.014,189.984 362.828,189.984 363.641,189.984 364.455,189.984 365.269,189.984 366.083,189.984 366.896,189.984 367.710,189.984 368.524,189.984 369.338,189.984 370.151,189.984 370.965,189.984 371.779,189.984 372.592,189.984 373.406,189.984 374.220,189.984 375.034,189.984 375.847,189.984 376.661,189.984 377.475,189.984 378.289,189.984 379.103,189.984 379.916,189.984 380.730,189.984 381.544,189.984 382.358,189.984 383.171,189.984 383.985,189.984 384.799,189.984 385.613,189.984 386.426,189.984 387.240,189.984 388.054,189.984 388.868,189.984 389.681,189.984 390.495,189.984 391.309,189.984 392.123,189.984 392.936,189.984 393.750,189.984 394.564,189.984 395.378,189.984 396.191,189.984 397.005,189.984 397.819,189.984 398.633,189.984 399.446,189.984 400.260,189.984 401.074,189.984 401.887,189.984 402.701,189.984 403.515,189.984 404.329,189.984 405.142,189.984 405.956,189.984 406.770,189.984 407.584,189.984 408.398,189.984 409.211,189.984 410.025,189.984 410.839,189.984 411.653,189.984 412.466,189.984 413.280,189.984 414.094,189.984 414.908,189.984 415.721,189.984 416.535,189.984 417.349,189.984 418.162,189.984 418.976,189.984 419.790,189.984 420.604,189.984 421.417,189.984 422.231,189.984 423.045,189.984 423.859,189.984 424.673,189.984 425.486,189.984 426.300,189.984 427.114,189.984 427.928,189.984 428.741,189.984 429.555,189.984 430.369,189.984 431.183,189.984 431.996,189.984 432.810,189.984 433.624,189.984 434.438,189.984 435.251,189.984 436.065,189.984 436.879,189.984 437.693,189.984 438.506,189.984 439.320,189.984 440.134,189.984 440.948,189.984 441.761,189.984 442.575,189.984 443.389,189.984 444.203,189.984 445.016,189.984 445.830,189.984 446.644,189.984 447.458,189.984 448.271,189.984 449.085,189.984 449.899,189.984 450.712,189.984 451.526,189.984 452.340,189.984 453.154,189.984 453.968,189.984 454.781,189.984 455.595,189.984 456.409,189.984 457.223,189.984 458.036,189.984 458.850,189.984 459.664,189.984 460.478,189.984 461.291,189.984 462.105,189.984 462.919,189.984 463.732,189.984 464.546,189.984 465.360,189.984 466.174,189.984 466.987,189.984 467.801,189.984 468.615,189.984 469.429,189.984 470.243,189.984 471.056,189.984 471.870,189.984 472.684,189.984 473.498,189.984 474.311,189.984 475.125,189.984 475.939,189.984 476.753,189.984 477.566,189.984 478.380,189.984 479.194,189.984 480.007,189.984 480.821,189.984 481.635,189.984 482.449,189.984 483.263,189.984 484.076,189.984 484.890,189.984 485.704,189.984 486.518,189.984 487.331,189.984 488.145,189.984 488.959,189.984 489.773,189.984 490.586,189.984 491.400,189.984 492.214,189.984 493.028,189.984 493.841,189.984 494.655,189.984 495.469,189.984 496.283,189.984 497.096,189.984 497.910,189.984 498.724,189.984 499.538,189.984 500.351,189.984 501.165,189.984 501.979,189.984 502.793,189.984 503.606,189.984 504.420,189.984 505.234,189.984 506.048,189.984 506.861,189.984 507.675,189.984 508.489,189.984 509.303,189.984 510.116,189.984 510.930,189.984 511.744,189.984 512.558,189.984 513.371,189.984 514.185,189.984 514.999,189.984 515.813,189.984 516.626,189.984 517.440,189.984 518.254,189.984 519.068,189.984 519.881,189.984 520.695,189.984 521.509,189.984 522.323,189.984 523.136,189.984 523.950,189.984 524.764,189.984 525.578,189.984 526.391,189.984 527.205,189.984 528.019,189.984 528.832,189.984 529.646,189.984 530.460,189.984 531.274,189.984 532.088,189.984 532.901,189.984 533.715,189.984 534.529,189.984 535.342,189.984 536.156,189.984 536.970,189.984 537.784,189.984 538.597,189.984 539.411,189.984 540.225,189.984 541.039,189.984 541.852,189.984 542.666,189.984 543.480,189.984 544.294,189.984 545.107,189.984 545.921,189.984 546.735,189.984 547.549,189.984 548.362,189.984 549.176,189.984 549.990,189.984 550.804,189.984 551.617,189.984 552.431,189.984 553.245,189.984 554.059,189.984 554.872,189.984 555.686,189.984 556.500,189.984 557.314,189.984 558.127,189.984 558.941,189.984 559.755,189.984 560.569,189.984 561.383,189.984 562.196,189.984 563.010,189.984 563.824,189.984 564.637,189.984 565.451,189.984 566.265,189.984 567.079,189.984 567.893,189.984 568.706,189.984 569.520,189.984 570.334,189.984 571.147,189.984 571.961,189.984 572.775,189.984 573.589,189.984 574.403,189.984 575.216,189.984 576.030,189.984 576.844,189.984 577.658,189.984 578.471,189.984 579.285,189.984 580.099,189.984 580.913,189.984 581.726,189.984 582.540,189.984 583.354,189.984 584.168,189.984 584.981,189.984 585.795,189.984 586.609,189.984 587.423,189.984 588.236,189.984 589.050,189.984 589.864,189.984 590.678,189.984 591.491,189.984 592.305,189.984 593.119,189.984 593.933,189.984 594.746,189.984 595.560,189.984 596.374,189.984 597.188,189.984 598.001,189.984 598.815,189.984 599.629,189.984 600.443,189.984 601.256,189.984 602.070,189.984 602.884,189.984 603.698,189.984 604.511,189.984 605.325,189.984 606.139,189.984 606.952,189.984 607.766,189.984 608.580,189.984 609.394,189.984 610.208,189.984 611.021,189.984 611.835,189.984 612.649,189.984 613.463,189.984 614.276,189.984 615.090,189.984 615.904,189.984 616.718,189.984 617.531,189.984 618.345,189.984 619.159,189.984 619.973,189.984 620.786,189.984 621.600,189.984 622.414,189.984 623.228,189.984 624.041,189.984 624.855,189.984 625.669,189.984 626.483,189.984 627.296,189.984 628.110,189.984 628.924,189.984 629.737,189.984 630.551,189.984 631.365,189.984 632.179,189.984 632.992,189.984 633.806,189.984 634.620,189.984 635.434,189.984 636.247,189.984 637.061,189.984 637.875,189.984 638.689,189.984 639.503,189.984 640.316,189.984 641.130,189.984 641.944,189.984 642.757,189.984 643.571,189.984 644.385,189.984 645.199,189.984 646.013,189.984 646.826,189.984 647.640,189.984 648.454,189.984 649.267,189.984 650.081,189.984 650.895,189.984 651.709,189.984 652.523,189.984 653.336,189.984 654.150,189.984 654.964,189.984 655.777,189.984 656.591,189.984 657.405,189.984 658.219,189.984 659.033,189.984 659.846,189.984 660.660,189.984 661.474,189.984 662.287,189.984 663.101,189.984 663.915,189.984 664.729,189.984 665.543,189.984 666.356,189.984 667.170,189.984 667.984,189.984 668.797,189.984 669.611,189.984 670.425,189.984 671.239,189.984 672.053,189.984 672.866,189.984 673.680,189.984 674.494,189.984 675.308,189.984 676.121,189.984 676.935,189.984 677.749,189.984 678.563,189.984 679.376,189.984 680.190,189.984 681.004,189.984 681.818,189.984 682.631,189.984 683.445,189.984 684.259,189.984 685.072,189.984 685.886,189.984 686.700,189.984 687.514,189.984 688.328,189.984 689.141,189.984 689.955,189.984 690.769,189.984 691.582,189.984 692.396,189.984 693.210,189.984 694.024,189.984 694.838,189.984 695.651,189.984 696.465,189.984 697.279,189.984 698.092,189.984 698.906,189.984 699.720,189.984 700.534,189.984 701.348,189.984 702.161,189.984 702.975,189.984 703.789,189.984 704.603,189.984 705.416,189.984 706.230,189.984 707.044,189.984 707.858,189.984 708.671,189.984 709.485,189.984 710.299,189.984 711.113,189.984 711.926,189.984 712.740,189.984 713.554,189.984 714.368,189.984 715.181,189.984 715.995,189.984 716.809,189.984 717.623,189.984 718.436,189.984 719.250,189.984 720.064,189.984 720.877,189.984 721.691,189.984 722.505,189.984 723.319,189.984 724.133,189.984 724.946,189.984 725.760,189.984 726.574,189.984 727.387,189.984 728.201,189.984 729.015,189.984 729.829,189.984 730.643,189.984 731.456,189.984 732.270,189.984 733.084,189.984 733.897,189.984 734.711,189.984 735.525,189.984 736.339,189.984 737.153,189.984 737.966,189.984 738.780,189.984 739.594,189.984 740.407,189.984 741.221,189.984 742.035,189.984 742.849,189.984 743.663,189.984 744.476,189.984 745.290,189.984 746.104,189.984 746.917,189.984 747.731,189.984 748.545,189.984 749.359,189.984 750.173,189.984 750.986,189.984 751.800,189.984 752.614,189.984 753.427,189.984 754.241,189.984 755.055,189.984 755.869,189.984 756.683,189.984 757.496,189.984 758.310,189.984 759.124,189.984 759.937,189.984 760.751,189.984 761.565,189.984 762.379,189.984 763.193,189.984 764.006,189.984 764.820,189.984 765.634,189.984 766.448,189.984 767.261,189.984 768.075,189.984 768.889,189.984 769.702,189.984 770.516,189.984 771.330,189.984 772.144,189.984 772.958,189.984 773.771,189.984 774.585,189.984 775.399,189.984 776.212,189.984 777.026,189.984 777.840,189.984 778.654,189.984 779.468,189.984 780.281,189.984 781.095,189.984 781.909,189.984 782.722,189.984 783.536,189.984 784.350,189.984 785.164,189.984 785.978,189.984 786.791,189.984 787.605,189.984 788.419,189.984 789.232,189.984 790.046,189.984 790.860,189.984 791.674,189.984 792.488,189.984 793.301,189.984 794.115,189.984 794.929,189.984 795.743,189.984 796.556,189.984 797.370,189.984 798.184,189.984 798.998,189.984 799.811,189.984 800.625,189.984 801.439,189.984 802.253,189.984 803.066,189.984 803.880,189.984 804.694,189.984 805.508,189.984 806.321,189.984 807.135,189.984 807.949,189.984 808.763,189.984 809.576,189.984 810.390,189.984 811.204,189.984 812.017,189.984 812.831,189.984 813.645,189.984 814.459,189.984 815.273,189.984 816.086,189.984 816.900,189.984 817.714,189.984 818.527,189.984 819.341,189.984 820.155,189.984 820.969,189.984 821.783,189.984 822.596,189.984 823.410,189.984 824.224,189.984 825.038,189.984 825.851,189.984 826.665,189.984 827.479,189.984 828.293,189.984 829.106,189.984 829.920,189.984 830.734,189.984 831.547,189.984 832.361,189.984 833.175,189.984 833.989,189.984 834.803,189.984 835.616,189.984 836.430,189.984 837.244,189.984 838.057,189.984 838.871,189.984 839.685,189.984 840.499,189.984 841.313,189.984 842.126,189.984 842.940,189.984 843.754,189.984 844.567,189.984 845.381,189.984 846.195,189.984 847.009,189.984 847.822,189.984 848.636,189.984 849.450,189.984 850.264,189.984 851.078,189.984 851.891,189.984 852.705,189.984 853.519,189.984 854.332,189.984 855.146,189.984 855.960,189.984 856.774,189.984 857.588,189.984 858.401,189.984 859.215,189.984 860.029,189.984 860.842,189.984 861.656,189.984 862.470,189.984 863.284,189.984 864.098,189.984 864.911,189.984 865.725,189.984 866.539,189.984 867.352,189.984 868.166,189.984 868.980,189.984 869.794,189.984 870.608,189.984 871.421,189.984 872.235,189.984 873.049,189.984 873.862,189.984 874.676,189.984 875.490,189.984 876.304,189.984 877.118,189.984 877.931,189.984 878.745,189.984 879.559,189.984 880.372,189.984 881.186,189.984 882.000,189.984 "/>
<g>
</g>
</g>
    </g>
    <g>
      <polyline fill="none" stroke="#262626" stroke-width="0.5pt" stroke-dasharray="none" points="108.938,350.438 108.938,346.369 "/>
      <polyline fill="none" stroke="#262626" stroke-width="0.5pt" stroke-dasharray="none" points="149.625,350.438 149.625,346.369 "/>
      <polyline fill="none" stroke="#262626" stroke-width="0.5pt" stroke-dasharray="none" points="190.313,350.438 190.313,346.369 "/>
      <polyline fill="none" stroke="#262626" stroke-width="0.5pt" stroke-dasharray="none" points="231.000,350.438 231.000,346.369 "/>
      <polyline fill="none" stroke="#262626" stroke-width="0.5pt" stroke-dasharray="none" points="271.688,350.438 271.688,346.369 "/>
      <polyline fill="none" stroke="#262626" stroke-width="0.5pt" stroke-dasharray="none" points="312.375,350.438 312.375,346.369 "/>
      <polyline fill="none" stroke="#262626" stroke-width="0.5pt" stroke-dasharray="none" points="353.063,350.438 353.063,346.369 "/>
      <polyline fill="none" stroke="#262626" stroke-width="0.5pt" stroke-dasharray="none" points="393.750,350.438 393.750,346.369 "/>
      <polyline fill="none" stroke="#262626" stroke-width="0.5pt" stroke-dasharray="none" points="434.438,350.438 434.438,346.369 "/>
      <polyline fill="none" stroke="#262626" stroke-width="0.5pt" stroke-dasharray="none" points="68.250,350.438 475.125,350.438 "/>
      <polyline fill="none" stroke="#262626" stroke-width="0.5pt" stroke-dasharray="none" points="108.938,29.531 108.938,33.600 "/>
      <polyline fill="none" stroke="#262626" stroke-width="0.5pt" stroke-dasharray="none" points="149.625,29.531 149.625,33.600 "/>
      <polyline fill="none" stroke="#262626" stroke-width="0.5pt" stroke-dasharray="none" points="190.313,29.531 190.313,33.600 "/>
      <polyline fill="none" stroke="#262626" stroke-width="0.5pt" stroke-dasharray="none" points="231.000,29.531 231.000,33.600 "/>
      <polyline fill="none" stroke="#262626" stroke-width="0.5pt" stroke-dasharray="none" points="271.688,29.531 271.688,33.600 "/>
      <polyline fill="none" stroke="#262626" stroke-width="0.5pt" stroke-dasharray="none" points="312.375,29.531 312.375,33.600 "/>
      <polyline fill="none" stroke="#262626" stroke-width="0.5pt" stroke-dasharray="none" points="353.063,29.531 353.063,33.600 "/>
      <polyline fill="none" stroke="#262626" stroke-width="0.5pt" stroke-dasharray="none" points="393.750,29.531 393.750,33.600 "/>
      <polyline fill="none" stroke="#262626" stroke-width="0.5pt" stroke-dasharray="none" points="434.438,29.531 434.438,33.600 "/>
      <polyline fill="none" stroke="#262626" stroke-width="0.5pt" stroke-dasharray="none" points="68.250,29.531 475.125,29.531 "/>
  <g transform="translate(68.250,367.918)">
    <g transform="rotate(-0.0)">
      <text x="0.000" y="0.000" font-family="Helvetica" text-anchor="middle" font-size="9pt" fill="#262626" >0</text>
    </g>
  </g>
  <g transform="translate(108.938,367.918)">
    <g transform="rotate(-0.0)">
      <text x="0.000" y="0.000" font-family="Helvetica" text-anchor="middle" font-size="9pt" fill="#262626" >50</text>
    </g>
  </g>
  <g transform="translate(149.625,367.918)">
    <g transform="rotate(-0.0)">
      <text x="0.000" y="0.000" font-family="Helvetica" text-anchor="middle" font-size="9pt" fill="#262626" >100</text>
    </g>
  </g>
  <g transform="translate(190.313,367.918)">
    <g transform="rotate(-0.0)">
      <text x="0.000" y="0.000" font-family="Helvetica" text-anchor="middle" font-size="9pt" fill="#262626" >150</text>
    </g>
  </g>
  <g transform="translate(231.000,367.918)">
    <g transform="rotate(-0.0)">
      <text x="0.000" y="0.000" font-family="Helvetica" text-anchor="middle" font-size="9pt" fill="#262626" >200</text>
    </g>
  </g>
  <g transform="translate(271.688,367.918)">
    <g transform="rotate(-0.0)">
      <text x="0.000" y="0.000" font-family="Helvetica" text-anchor="middle" font-size="9pt" fill="#262626" >250</text>
    </g>
  </g>
  <g transform="translate(312.375,367.918)">
    <g transform="rotate(-0.0)">
      <text x="0.000" y="0.000" font-family="Helvetica" text-anchor="middle" font-size="9pt" fill="#262626" >300</text>
    </g>
  </g>
  <g transform="translate(353.063,367.918)">
    <g transform="rotate(-0.0)">
      <text x="0.000" y="0.000" font-family="Helvetica" text-anchor="middle" font-size="9pt" fill="#262626" >350</text>
    </g>
  </g>
  <g transform="translate(393.750,367.918)">
    <g transform="rotate(-0.0)">
      <text x="0.000" y="0.000" font-family="Helvetica" text-anchor="middle" font-size="9pt" fill="#262626" >400</text>
    </g>
  </g>
  <g transform="translate(434.438,367.918)">
    <g transform="rotate(-0.0)">
      <text x="0.000" y="0.000" font-family="Helvetica" text-anchor="middle" font-size="9pt" fill="#262626" >450</text>
    </g>
  </g>
  <g transform="translate(475.125,367.918)">
    <g transform="rotate(-0.0)">
      <text x="0.000" y="0.000" font-family="Helvetica" text-anchor="middle" font-size="9pt" fill="#262626" >500</text>
    </g>
  </g>
      <polyline fill="none" stroke="#262626" stroke-width="0.5pt" stroke-dasharray="none" points="68.250,318.347 72.319,318.347 "/>
      <polyline fill="none" stroke="#262626" stroke-width="0.5pt" stroke-dasharray="none" points="68.250,286.256 72.319,286.256 "/>
      <polyline fill="none" stroke="#262626" stroke-width="0.5pt" stroke-dasharray="none" points="68.250,254.166 72.319,254.166 "/>
      <polyline fill="none" stroke="#262626" stroke-width="0.5pt" stroke-dasharray="none" points="68.250,222.075 72.319,222.075 "/>
      <polyline fill="none" stroke="#262626" stroke-width="0.5pt" stroke-dasharray="none" points="68.250,189.984 72.319,189.984 "/>
      <polyline fill="none" stroke="#262626" stroke-width="0.5pt" stroke-dasharray="none" points="68.250,157.894 72.319,157.894 "/>
      <polyline fill="none" stroke="#262626" stroke-width="0.5pt" stroke-dasharray="none" points="68.250,125.803 72.319,125.803 "/>
      <polyline fill="none" stroke="#262626" stroke-width="0.5pt" stroke-dasharray="none" points="68.250,93.712 72.319,93.712 "/>
      <polyline fill="none" stroke="#262626" stroke-width="0.5pt" stroke-dasharray="none" points="68.250,61.622 72.319,61.622 "/>
      <polyline fill="none" stroke="#262626" stroke-width="0.5pt" stroke-dasharray="none" points="68.250,350.438 68.250,29.531 "/>
      <polyline fill="none" stroke="#262626" stroke-width="0.5pt" stroke-dasharray="none" points="475.125,318.347 471.056,318.347 "/>
      <polyline fill="none" stroke="#262626" stroke-width="0.5pt" stroke-dasharray="none" points="475.125,286.256 471.056,286.256 "/>
      <polyline fill="none" stroke="#262626" stroke-width="0.5pt" stroke-dasharray="none" points="475.125,254.166 471.056,254.166 "/>
      <polyline fill="none" stroke="#262626" stroke-width="0.5pt" stroke-dasharray="none" points="475.125,222.075 471.056,222.075 "/>
      <polyline fill="none" stroke="#262626" stroke-width="0.5pt" stroke-dasharray="none" points="475.125,189.984 471.056,189.984 "/>
      <polyline fill="none" stroke="#262626" stroke-width="0.5pt" stroke-dasharray="none" points="475.125,157.894 471.056,157.894 "/>
      <polyline fill="none" stroke="#262626" stroke-width="0.5pt" stroke-dasharray="none" points="475.125,125.803 471.056,125.803 "/>
      <polyline fill="none" stroke="#262626" stroke-width="0.5pt" stroke-dasharray="none" points="475.125,93.712 471.056,93.712 "/>
      <polyline fill="none" stroke="#262626" stroke-width="0.5pt" stroke-dasharray="none" points="475.125,61.622 471.056,61.622 "/>
      <polyline fill="none" stroke="#262626" stroke-width="0.5pt" stroke-dasharray="none" points="475.125,350.438 475.125,29.531 "/>
  <g transform="translate(60.112,354.656)">
    <g transform="rotate(-0.0)">
      <text x="0.000" y="0.000" font-family="Helvetica" text-anchor="end" font-size="9pt" fill="#262626" >-1</text>
    </g>
  </g>
  <g transform="translate(60.112,322.566)">
    <g transform="rotate(-0.0)">
      <text x="0.000" y="0.000" font-family="Helvetica" text-anchor="end" font-size="9pt" fill="#262626" >-0.8</text>
    </g>
  </g>
  <g transform="translate(60.112,290.475)">
    <g transform="rotate(-0.0)">
      <text x="0.000" y="0.000" font-family="Helvetica" text-anchor="end" font-size="9pt" fill="#262626" >-0.6</text>
    </g>
  </g>
  <g transform="translate(60.112,258.384)">
    <g transform="rotate(-0.0)">
      <text x="0.000" y="0.000" font-family="Helvetica" text-anchor="end" font-size="9pt" fill="#262626" >-0.4</text>
    </g>
  </g>
  <g transform="translate(60.112,226.294)">
    <g transform="rotate(-0.0)">
      <text x="0.000" y="0.000" font-family="Helvetica" text-anchor="end" font-size="9pt" fill="#262626" >-0.2</text>
    </g>
  </g>
  <g transform="translate(60.112,194.203)">
    <g transform="rotate(-0.0)">
      <text x="0.000" y="0.000" font-family="Helvetica" text-anchor="end" font-size="9pt" fill="#262626" >0</text>
    </g>
  </g>
  <g transform="translate(60.112,162.112)">
    <g transform="rotate(-0.0)">
      <text x="0.000" y="0.000" font-family="Helvetica" text-anchor="end" font-size="9pt" fill="#262626" >0.2</text>
    </g>
  </g>
  <g transform="translate(60.112,130.022)">
    <g transform="rotate(-0.0)">
      <text x="0.000" y="0.000" font-family="Helvetica" text-anchor="end" font-size="9pt" fill="#262626" >0.4</text>
    </g>
  </g>
  <g transform="translate(60.112,97.931)">
    <g transform="rotate(-0.0)">
      <text x="0.000" y="0.000" font-family="Helvetica" text-anchor="end" font-size="9pt" fill="#262626" >0.6</text>
    </g>
  </g>
  <g transform="translate(60.112,65.841)">
    <g transform="rotate(-0.0)">
      <text x="0.000" y="0.000" font-family="Helvetica" text-anchor="end" font-size="9pt" fill="#262626" >0.8</text>
    </g>
  </g>
  <g transform="translate(60.112,33.750)">
    <g transform="rotate(-0.0)">
      <text x="0.000" y="0.000" font-family="Helvetica" text-anchor="end" font-size="9pt" fill="#262626" >1</text>
    </g>
  </g>
      <polyline fill="none" stroke="#262626" stroke-width="0.5pt" stroke-dasharray="none" points="68.250,350.438 68.250,347.228 "/>
      <polyline fill="none" stroke="#262626" stroke-width="0.5pt" stroke-dasharray="none" points="68.250,350.438 68.250,350.437 "/>
    </g>
  </g>
  </g>
</svg>
