<?xml version="1.0" encoding="utf-8" standalone="no"?><!DOCTYPE svg PUBLIC "-//W3C//DTD SVG 1.1//EN" "http://www.w3.org/Graphics/SVG/1.1/DTD/svg11.dtd">
<svg preserveAspectRatio="xMinYMin meet" width="100%" height="100%" viewBox="0 0 525.000 393.750"  version="1.1" xmlns="http://www.w3.org/2000/svg" xmlns:xlink="http://www.w3.org/1999/xlink">
  <desc>Matlab Figure Converted by PLOT2SVG written by Juerg Schwizer</desc>
  <g id="topgroup">
  <rect x="0" y="0" width="525.000" height="393.750" fill="#ffffff" stroke="none" />
  <g id ="ID000000">
  <clipPath id="ID000001">
    <rect x="78.875" y="29.531" width="396.250" height="320.906"/>
  </clipPath>
      <polygon fill="#ffffff" fill-opacity="1.00" stroke="none" stroke-width="0.5pt" stroke-opacity="1.00" stroke-dasharray="none" points="78.875,350.438 475.125,350.438 475.125,29.531 78.875,29.531 "/>
      <polygon fill="#ffffff" fill-opacity="1.00" stroke="none" stroke-width="0.5pt" stroke-opacity="1.00" stroke-dasharray="none" points="78.875,29.531 475.125,29.531 475.125,29.531 78.875,29.531 "/>
      <polygon fill="#ffffff" fill-opacity="1.00" stroke="none" stroke-width="0.5pt" stroke-opacity="1.00" stroke-dasharray="none" points="78.875,350.438 78.875,350.438 78.875,29.531 78.875,29.531 "/>
    <g>
<g id="ID000002" >
  <g transform="translate(16.032,189.984)">
    <g transform="rotate(-90.0)">
      <text x="0.000" y="0.000" font-family="Helvetica" text-anchor="middle" font-size="10pt" fill="#262626" >Normalized Magnitude</text>
    </g>
  </g>
</g>
<g id="ID000003" >
  <g transform="translate(277.000,384.748)">
    <g transform="rotate(-0.0)">
      <text x="0.000" y="0.000" font-family="Helvetica" text-anchor="middle" font-size="10pt" fill="#262626" >Frequency [GHz]</text>
    </g>
  </g>
</g>
<g id="ID000004" >
  <g transform="translate(277.000,24.380)">
    <g transform="rotate(-0.0)">
      <text x="0.000" y="0.000" font-family="Helvetica" text-anchor="middle" font-size="10pt" font-weight="bold" fill="#000000" >Signal Spectrum</text>
    </g>
  </g>
</g>
<g id="ID000005" clip-path="url(#ID000001)" >
      <polyline fill="none" stroke="#0071bc" stroke-width="0.5pt" stroke-dasharray="none" points="79.566,36.571 80.256,36.577 80.947,36.585 81.637,36.597 82.328,36.613 83.018,36.632 83.709,36.655 84.399,36.681 85.090,36.710 85.780,36.743 86.471,36.779 87.161,36.819 87.852,36.863 88.542,36.910 89.233,36.960 89.923,37.014 90.614,37.071 91.304,37.131 91.995,37.196 92.686,37.263 93.376,37.334 94.067,37.409 94.757,37.487 95.448,37.568 96.138,37.653 96.829,37.741 97.519,37.833 98.210,37.928 98.900,38.027 99.591,38.129 100.281,38.234 100.972,38.343 101.662,38.455 102.353,38.571 103.043,38.690 103.734,38.813 104.425,38.939 105.115,39.069 105.806,39.202 106.496,39.338 107.187,39.478 107.877,39.621 108.568,39.767 109.258,39.917 109.949,40.070 110.639,40.227 111.330,40.387 112.020,40.551 112.711,40.718 113.401,40.888 114.092,41.061 114.782,41.238 115.473,41.419 116.163,41.603 116.854,41.790 117.545,41.980 118.235,42.174 118.926,42.371 119.616,42.572 120.307,42.775 120.997,42.983 121.688,43.193 122.378,43.407 123.069,43.624 123.759,43.845 124.450,44.068 125.140,44.295 125.831,44.526 126.521,44.759 127.212,44.996 127.902,45.237 128.593,45.480 129.283,45.727 129.974,45.977 130.665,46.230 131.355,46.487 132.046,46.747 132.736,47.010 133.427,47.276 134.117,47.546 134.808,47.819 135.498,48.095 136.189,48.374 136.879,48.657 137.570,48.942 138.260,49.231 138.951,49.523 139.641,49.819 140.332,50.117 141.022,50.419 141.713,50.723 142.403,51.031 143.094,51.343 143.785,51.657 144.475,51.974 145.166,52.295 145.856,52.618 146.547,52.945 147.237,53.275 147.928,53.608 148.618,53.944 149.309,54.284 149.999,54.626 150.690,54.971 151.380,55.320 152.071,55.671 152.761,56.026 153.452,56.383 154.142,56.744 154.833,57.108 155.524,57.475 156.214,57.844 156.905,58.217 157.595,58.593 158.286,58.972 158.976,59.353 159.667,59.738 160.357,60.126 161.048,60.516 161.738,60.910 162.429,61.307 163.119,61.706 163.810,62.108 164.500,62.514 165.191,62.922 165.881,63.333 166.572,63.747 167.262,64.164 167.953,64.584 168.644,65.007 169.334,65.432 170.025,65.861 170.715,66.292 171.406,66.726 172.096,67.163 172.787,67.602 173.477,68.045 174.168,68.490 174.858,68.938 175.549,69.389 176.239,69.843 176.930,70.299 177.620,70.758 178.311,71.220 179.001,71.685 179.692,72.152 180.382,72.622 181.073,73.095 181.764,73.570 182.454,74.048 183.145,74.529 183.835,75.013 184.526,75.499 185.216,75.987 185.907,76.479 186.597,76.973 187.288,77.469 187.978,77.968 188.669,78.470 189.359,78.975 190.050,79.481 190.740,79.991 191.431,80.503 192.121,81.018 192.812,81.535 193.503,82.054 194.193,82.576 194.884,83.101 195.574,83.628 196.265,84.158 196.955,84.690 197.646,85.224 198.336,85.761 199.027,86.300 199.717,86.842 200.408,87.386 201.098,87.933 201.789,88.482 202.479,89.033 203.170,89.587 203.860,90.143 204.551,90.701 205.241,91.262 205.932,91.825 206.623,92.390 207.313,92.958 208.004,93.528 208.694,94.100 209.385,94.674 210.075,95.251 210.766,95.830 211.456,96.411 212.147,96.994 212.837,97.580 213.528,98.168 214.218,98.758 214.909,99.350 215.599,99.944 216.290,100.540 216.980,101.139 217.671,101.740 218.361,102.342 219.052,102.947 219.743,103.554 220.433,104.163 221.124,104.774 221.814,105.387 222.505,106.003 223.195,106.620 223.886,107.239 224.576,107.860 225.267,108.483 225.957,109.109 226.648,109.736 227.338,110.365 228.029,110.996 228.719,111.629 229.410,112.264 230.100,112.900 230.791,113.539 231.481,114.180 232.172,114.822 232.863,115.466 233.553,116.112 234.244,116.760 234.934,117.410 235.625,118.062 236.315,118.715 237.006,119.370 237.696,120.027 238.387,120.685 239.077,121.346 239.768,122.008 240.458,122.672 241.149,123.337 241.839,124.004 242.530,124.673 243.220,125.344 243.911,126.016 244.602,126.690 245.292,127.365 245.983,128.042 246.673,128.721 247.364,129.401 248.054,130.083 248.745,130.767 249.435,131.452 250.126,132.138 250.816,132.826 251.507,133.516 252.197,134.207 252.888,134.899 253.578,135.593 254.269,136.289 254.959,136.986 255.650,137.684 256.340,138.384 257.031,139.085 257.722,139.787 258.412,140.491 259.103,141.197 259.793,141.903 260.484,142.611 261.174,143.321 261.865,144.031 262.555,144.743 263.246,145.456 263.936,146.171 264.627,146.887 265.317,147.604 266.008,148.322 266.698,149.042 267.389,149.762 268.079,150.484 268.770,151.207 269.460,151.932 270.151,152.657 270.842,153.384 271.532,154.111 272.223,154.840 272.913,155.570 273.604,156.301 274.294,157.034 274.985,157.767 275.675,158.501 276.366,159.236 277.056,159.973 277.747,160.710 278.437,161.449 279.128,162.188 279.818,162.928 280.509,163.670 281.199,164.412 281.890,165.155 282.580,165.899 283.271,166.644 283.962,167.390 284.652,168.137 285.343,168.885 286.033,169.634 286.724,170.383 287.414,171.134 288.105,171.885 288.795,172.637 289.486,173.389 290.176,174.143 290.867,174.897 291.557,175.652 292.248,176.408 292.938,177.165 293.629,177.922 294.319,178.680 295.010,179.439 295.701,180.198 296.391,180.958 297.082,181.719 297.772,182.480 298.463,183.242 299.153,184.005 299.844,184.768 300.534,185.532 301.225,186.297 301.915,187.062 302.606,187.827 303.296,188.593 303.987,189.360 304.677,190.127 305.368,190.895 306.058,191.663 306.749,192.432 307.439,193.201 308.130,193.970 308.821,194.740 309.511,195.511 310.202,196.282 310.892,197.053 311.583,197.825 312.273,198.597 312.964,199.370 313.654,200.142 314.345,200.916 315.035,201.689 315.726,202.463 316.416,203.237 317.107,204.012 317.797,204.786 318.488,205.562 319.178,206.337 319.869,207.112 320.559,207.888 321.250,208.664 321.941,209.441 322.631,210.217 323.322,210.994 324.012,211.771 324.703,212.548 325.393,213.325 326.084,214.102 326.774,214.880 327.465,215.657 328.155,216.435 328.846,217.213 329.536,217.990 330.227,218.768 330.917,219.546 331.608,220.325 332.298,221.103 332.989,221.881 333.680,222.659 334.370,223.437 335.061,224.215 335.751,224.993 336.442,225.772 337.132,226.550 337.823,227.328 338.513,228.106 339.204,228.884 339.894,229.661 340.585,230.439 341.275,231.217 341.966,231.994 342.656,232.772 343.347,233.549 344.037,234.326 344.728,235.103 345.418,235.880 346.109,236.656 346.800,237.433 347.490,238.209 348.181,238.985 348.871,239.761 349.562,240.536 350.252,241.312 350.943,242.087 351.633,242.861 352.324,243.636 353.014,244.410 353.705,245.184 354.395,245.958 355.086,246.731 355.776,247.504 356.467,248.276 357.157,249.049 357.848,249.820 358.538,250.592 359.229,251.363 359.920,252.134 360.610,252.904 361.301,253.674 361.991,254.444 362.682,255.213 363.372,255.981 364.063,256.749 364.753,257.517 365.444,258.284 366.134,259.051 366.825,259.817 367.515,260.583 368.206,261.348 368.896,262.113 369.587,262.877 370.277,263.641 370.968,264.404 371.658,265.167 372.349,265.929 373.040,266.690 373.730,267.451 374.421,268.211 375.111,268.971 375.802,269.730 376.492,270.488 377.183,271.246 377.873,272.003 378.564,272.760 379.254,273.516 379.945,274.271 380.635,275.025 381.326,275.779 382.016,276.532 382.707,277.285 383.397,278.036 384.088,278.787 384.779,279.538 385.469,280.287 386.160,281.036 386.850,281.784 387.541,282.531 388.231,283.277 388.922,284.023 389.612,284.768 390.303,285.512 390.993,286.255 391.684,286.998 392.374,287.740 393.065,288.480 393.755,289.220 394.446,289.960 395.136,290.698 395.827,291.435 396.517,292.172 397.208,292.908 397.899,293.642 398.589,294.376 399.280,295.109 399.970,295.841 400.661,296.573 401.351,297.303 402.042,298.032 402.732,298.761 403.423,299.488 404.113,300.214 404.804,300.940 405.494,301.665 406.185,302.388 406.875,303.111 407.566,303.832 408.256,304.553 408.947,305.273 409.637,305.991 410.328,306.709 411.019,307.425 411.709,308.141 412.400,308.855 413.090,309.569 413.781,310.281 414.471,310.993 415.162,311.703 415.852,312.412 416.543,313.120 417.233,313.827 417.924,314.533 418.614,315.238 419.305,315.942 419.995,316.644 420.686,317.346 421.376,318.046 422.067,318.746 422.758,319.444 423.448,320.141 424.139,320.837 "/>
<g>
</g>
</g>
    </g>
    <g>
      <polyline fill="none" stroke="#262626" stroke-width="0.5pt" stroke-dasharray="none" points="135.482,350.438 135.482,346.475 "/>
      <polyline fill="none" stroke="#262626" stroke-width="0.5pt" stroke-dasharray="none" points="192.089,350.438 192.089,346.475 "/>
      <polyline fill="none" stroke="#262626" stroke-width="0.5pt" stroke-dasharray="none" points="248.696,350.438 248.696,346.475 "/>
      <polyline fill="none" stroke="#262626" stroke-width="0.5pt" stroke-dasharray="none" points="305.304,350.438 305.304,346.475 "/>
      <polyline fill="none" stroke="#262626" stroke-width="0.5pt" stroke-dasharray="none" points="361.911,350.438 361.911,346.475 "/>
      <polyline fill="none" stroke="#262626" stroke-width="0.5pt" stroke-dasharray="none" points="418.518,350.438 418.518,346.475 "/>
      <polyline fill="none" stroke="#262626" stroke-width="0.5pt" stroke-dasharray="none" points="78.875,350.438 475.125,350.438 "/>
      <polyline fill="none" stroke="#262626" stroke-width="0.5pt" stroke-dasharray="none" points="135.482,29.531 135.482,33.494 "/>
      <polyline fill="none" stroke="#262626" stroke-width="0.5pt" stroke-dasharray="none" points="192.089,29.531 192.089,33.494 "/>
      <polyline fill="none" stroke="#262626" stroke-width="0.5pt" stroke-dasharray="none" points="248.696,29.531 248.696,33.494 "/>
      <polyline fill="none" stroke="#262626" stroke-width="0.5pt" stroke-dasharray="none" points="305.304,29.531 305.304,33.494 "/>
      <polyline fill="none" stroke="#262626" stroke-width="0.5pt" stroke-dasharray="none" points="361.911,29.531 361.911,33.494 "/>
      <polyline fill="none" stroke="#262626" stroke-width="0.5pt" stroke-dasharray="none" points="418.518,29.531 418.518,33.494 "/>
      <polyline fill="none" stroke="#262626" stroke-width="0.5pt" stroke-dasharray="none" points="78.875,29.531 475.125,29.531 "/>
  <g transform="translate(78.875,367.918)">
    <g transform="rotate(-0.0)">
      <text x="0.000" y="0.000" font-family="Helvetica" text-anchor="middle" font-size="9pt" fill="#262626" >0</text>
    </g>
  </g>
  <g transform="translate(135.482,367.918)">
    <g transform="rotate(-0.0)">
      <text x="0.000" y="0.000" font-family="Helvetica" text-anchor="middle" font-size="9pt" fill="#262626" >1</text>
    </g>
  </g>
  <g transform="translate(192.089,367.918)">
    <g transform="rotate(-0.0)">
      <text x="0.000" y="0.000" font-family="Helvetica" text-anchor="middle" font-size="9pt" fill="#262626" >2</text>
    </g>
  </g>
  <g transform="translate(248.696,367.918)">
    <g transform="rotate(-0.0)">
      <text x="0.000" y="0.000" font-family="Helvetica" text-anchor="middle" font-size="9pt" fill="#262626" >3</text>
    </g>
  </g>
  <g transform="translate(305.304,367.918)">
    <g transform="rotate(-0.0)">
      <text x="0.000" y="0.000" font-family="Helvetica" text-anchor="middle" font-size="9pt" fill="#262626" >4</text>
    </g>
  </g>
  <g transform="translate(361.911,367.918)">
    <g transform="rotate(-0.0)">
      <text x="0.000" y="0.000" font-family="Helvetica" text-anchor="middle" font-size="9pt" fill="#262626" >5</text>
    </g>
  </g>
  <g transform="translate(418.518,367.918)">
    <g transform="rotate(-0.0)">
      <text x="0.000" y="0.000" font-family="Helvetica" text-anchor="middle" font-size="9pt" fill="#262626" >6</text>
    </g>
  </g>
  <g transform="translate(475.125,367.918)">
    <g transform="rotate(-0.0)">
      <text x="0.000" y="0.000" font-family="Helvetica" text-anchor="middle" font-size="9pt" fill="#262626" >7</text>
    </g>
  </g>
      <polyline fill="none" stroke="#262626" stroke-width="0.5pt" stroke-dasharray="none" points="78.875,296.953 82.837,296.953 "/>
      <polyline fill="none" stroke="#262626" stroke-width="0.5pt" stroke-dasharray="none" points="78.875,243.469 82.837,243.469 "/>
      <polyline fill="none" stroke="#262626" stroke-width="0.5pt" stroke-dasharray="none" points="78.875,189.984 82.837,189.984 "/>
      <polyline fill="none" stroke="#262626" stroke-width="0.5pt" stroke-dasharray="none" points="78.875,136.500 82.837,136.500 "/>
      <polyline fill="none" stroke="#262626" stroke-width="0.5pt" stroke-dasharray="none" points="78.875,83.016 82.837,83.016 "/>
      <polyline fill="none" stroke="#262626" stroke-width="0.5pt" stroke-dasharray="none" points="78.875,350.438 78.875,29.531 "/>
      <polyline fill="none" stroke="#262626" stroke-width="0.5pt" stroke-dasharray="none" points="475.125,296.953 471.162,296.953 "/>
      <polyline fill="none" stroke="#262626" stroke-width="0.5pt" stroke-dasharray="none" points="475.125,243.469 471.162,243.469 "/>
      <polyline fill="none" stroke="#262626" stroke-width="0.5pt" stroke-dasharray="none" points="475.125,189.984 471.162,189.984 "/>
      <polyline fill="none" stroke="#262626" stroke-width="0.5pt" stroke-dasharray="none" points="475.125,136.500 471.162,136.500 "/>
      <polyline fill="none" stroke="#262626" stroke-width="0.5pt" stroke-dasharray="none" points="475.125,83.016 471.162,83.016 "/>
      <polyline fill="none" stroke="#262626" stroke-width="0.5pt" stroke-dasharray="none" points="475.125,350.438 475.125,29.531 "/>
  <g transform="translate(70.950,354.656)">
    <g transform="rotate(-0.0)">
      <text x="0.000" y="0.000" font-family="Helvetica" text-anchor="end" font-size="9pt" fill="#262626" >0</text>
    </g>
  </g>
  <g transform="translate(70.950,301.172)">
    <g transform="rotate(-0.0)">
      <text x="0.000" y="0.000" font-family="Helvetica" text-anchor="end" font-size="9pt" fill="#262626" >0.166667</text>
    </g>
  </g>
  <g transform="translate(70.950,247.688)">
    <g transform="rotate(-0.0)">
      <text x="0.000" y="0.000" font-family="Helvetica" text-anchor="end" font-size="9pt" fill="#262626" >0.333333</text>
    </g>
  </g>
  <g transform="translate(70.950,194.203)">
    <g transform="rotate(-0.0)">
      <text x="0.000" y="0.000" font-family="Helvetica" text-anchor="end" font-size="9pt" fill="#262626" >0.5</text>
    </g>
  </g>
  <g transform="translate(70.950,140.719)">
    <g transform="rotate(-0.0)">
      <text x="0.000" y="0.000" font-family="Helvetica" text-anchor="end" font-size="9pt" fill="#262626" >0.666667</text>
    </g>
  </g>
  <g transform="translate(70.950,87.234)">
    <g transform="rotate(-0.0)">
      <text x="0.000" y="0.000" font-family="Helvetica" text-anchor="end" font-size="9pt" fill="#262626" >0.833333</text>
    </g>
  </g>
  <g transform="translate(70.950,33.750)">
    <g transform="rotate(-0.0)">
      <text x="0.000" y="0.000" font-family="Helvetica" text-anchor="end" font-size="9pt" fill="#262626" >1</text>
    </g>
  </g>
      <polyline fill="none" stroke="#262626" stroke-width="0.5pt" stroke-dasharray="none" points="78.875,350.438 78.875,347.228 "/>
      <polyline fill="none" stroke="#262626" stroke-width="0.5pt" stroke-dasharray="none" points="78.875,350.438 78.875,350.438 "/>
    </g>
  </g>
  </g>
</svg>
